<svg version="1.1" xmlns="http://www.w3.org/2000/svg" xmlns:xlink="http://www.w3.org/1999/xlink" width="1156" height="1036"><defs/><g><g transform="translate(10,-6) scale(1,1)"><rect fill="#C0C0C0" stroke="none" x="79" y="23" width="1064" height="1016" opacity="0.2"/></g><g transform="translate(10,-6) scale(1,1)"><rect fill="#ffffff" stroke="none" x="72" y="16" width="1064" height="1016"/></g><g transform="translate(10,-6) scale(1,1)"><path fill="none" stroke="#000000" d="M 72 16 L 1136 16 L 1136 1032 L 72 1032 L 72 16 Z Z" stroke-miterlimit="10"/></g><g transform="translate(10,-6) scale(1,1)"><g><path fill="none" stroke="none"/><text fill="#000000" stroke="none" font-family="Arial" font-size="13px" font-style="normal" font-weight="bold" text-decoration="none" x="544.865234375" y="35.5">Système de Vivedex</text></g></g><g transform="translate(10,-6) scale(1,1)"><path fill="#ffffff" stroke="none" d="M 27.60661594460227 249.68 C 27.60661594460227 244.886167936 31.492458269547726 241 36.285888671875 241 C 41.079319074202274 241 44.96516139914773 244.886167936 44.96516139914773 249.68 C 44.96516139914773 254.47383206400002 41.079319074202274 258.36 36.285888671875 258.36 C 31.492458269547726 258.36 27.60661594460227 254.47383206400002 27.60661594460227 249.68 Z"/></g><g transform="translate(10,-6) scale(1,1)"><path fill="none" stroke="#000000" d="M 27.60661594460227 249.68 C 27.60661594460227 244.886167936 31.492458269547726 241 36.285888671875 241 C 41.079319074202274 241 44.96516139914773 244.886167936 44.96516139914773 249.68 C 44.96516139914773 254.47383206400002 41.079319074202274 258.36 36.285888671875 258.36 C 31.492458269547726 258.36 27.60661594460227 254.47383206400002 27.60661594460227 249.68 Z" stroke-miterlimit="10"/></g><g transform="translate(10,-6) scale(1,1)"><path fill="none" stroke="#000000" d="M 36.285888671875 258.36 L 36.285888671875 275.64" stroke-miterlimit="10"/></g><g transform="translate(10,-6) scale(1,1)"><path fill="none" stroke="#000000" d="M 27.096070490056817 264.84 L 45.47570685369318 264.84" stroke-miterlimit="10"/></g><g transform="translate(10,-6) scale(1,1)"><path fill="none" stroke="#000000" d="M 36.285888671875 275.64 L 23.522252308238635 293" stroke-miterlimit="10"/></g><g transform="translate(10,-6) scale(1,1)"><path fill="none" stroke="#000000" d="M 36.285888671875 275.64 L 49.049525035511365 293" stroke-miterlimit="10"/></g><g transform="translate(10,-6) scale(1,1)"><g><path fill="none" stroke="none"/><text fill="#000000" stroke="none" font-family="Arial" font-size="13px" font-style="normal" font-weight="bold" text-decoration="none" x="7.38818359375" y="313.5">Utilisateur</text></g></g><g transform="translate(10,-6) scale(1,1)"><path fill="#C0C0C0" stroke="none" d="M 287 104 C 287 94.6111584 324.3842192 87 370.5 87 C 416.6157808 87 454 94.6111584 454 104 C 454 113.3888416 416.6157808 121 370.5 121 C 324.3842192 121 287 113.3888416 287 104 Z" opacity="0.2"/></g><g transform="translate(10,-6) scale(1,1)"><path fill="#ffffff" stroke="none" d="M 280 97 C 280 87.6111584 317.3842192 80 363.5 80 C 409.6157808 80 447 87.6111584 447 97 C 447 106.3888416 409.6157808 114 363.5 114 C 317.3842192 114 280 106.3888416 280 97 Z"/></g><g transform="translate(10,-6) scale(1,1)"><path fill="none" stroke="#000000" d="M 280 97 C 280 87.6111584 317.3842192 80 363.5 80 C 409.6157808 80 447 87.6111584 447 97 C 447 106.3888416 409.6157808 114 363.5 114 C 317.3842192 114 280 106.3888416 280 97 Z" stroke-miterlimit="10"/></g><g transform="translate(10,-6) scale(1,1)"><g><path fill="none" stroke="none"/><text fill="#000000" stroke="none" font-family="Arial" font-size="13px" font-style="normal" font-weight="bold" text-decoration="none" x="312.91552734375" y="104">rechercher un jeu</text></g></g><g transform="translate(10,-6) scale(1,1)"><path fill="none" stroke="#000000" d="M 74 258 L 331 115" stroke-miterlimit="10"/></g><g transform="translate(10,-6) scale(1,1)"><path fill="#C0C0C0" stroke="none" d="M 423 200 C 423 190.6111584 450.0867696 183 483.5 183 C 516.9132304 183 544 190.6111584 544 200 C 544 209.3888416 516.9132304 217 483.5 217 C 450.0867696 217 423 209.3888416 423 200 Z" opacity="0.2"/></g><g transform="translate(10,-6) scale(1,1)"><path fill="#ffffff" stroke="none" d="M 416 193 C 416 183.6111584 443.0867696 176 476.5 176 C 509.9132304 176 537 183.6111584 537 193 C 537 202.3888416 509.9132304 210 476.5 210 C 443.0867696 210 416 202.3888416 416 193 Z"/></g><g transform="translate(10,-6) scale(1,1)"><path fill="none" stroke="#000000" d="M 416 193 C 416 183.6111584 443.0867696 176 476.5 176 C 509.9132304 176 537 183.6111584 537 193 C 537 202.3888416 509.9132304 210 476.5 210 C 443.0867696 210 416 202.3888416 416 193 Z" stroke-miterlimit="10"/></g><g transform="translate(10,-6) scale(1,1)"><g><path fill="none" stroke="none"/><text fill="#000000" stroke="none" font-family="Arial" font-size="13px" font-style="normal" font-weight="bold" text-decoration="none" x="441.4609375" y="200">trier les jeux</text></g></g><g transform="translate(10,-6) scale(1,1)"><path fill="#C0C0C0" stroke="none" d="M 311 504 C 311 494.6111584 371.8892672 487 447 487 C 522.1107328 487 583 494.6111584 583 504 C 583 513.3888416 522.1107328 521 447 521 C 371.8892672 521 311 513.3888416 311 504 Z" opacity="0.2"/></g><g transform="translate(10,-6) scale(1,1)"><path fill="#ffffff" stroke="none" d="M 304 497 C 304 487.6111584 364.8892672 480 440 480 C 515.1107328 480 576 487.6111584 576 497 C 576 506.3888416 515.1107328 514 440 514 C 364.8892672 514 304 506.3888416 304 497 Z"/></g><g transform="translate(10,-6) scale(1,1)"><path fill="none" stroke="#000000" d="M 304 497 C 304 487.6111584 364.8892672 480 440 480 C 515.1107328 480 576 487.6111584 576 497 C 576 506.3888416 515.1107328 514 440 514 C 364.8892672 514 304 506.3888416 304 497 Z" stroke-miterlimit="10"/></g><g transform="translate(10,-6) scale(1,1)"><g><path fill="none" stroke="none"/><text fill="#000000" stroke="none" font-family="Arial" font-size="13px" font-style="normal" font-weight="bold" text-decoration="none" x="355.4111328125" y="504">afficher les jeux d'une licence</text></g></g><g transform="translate(10,-6) scale(1,1)"><path fill="#C0C0C0" stroke="none" d="M 671 488 C 671 478.6111584 726.5166848 471 795 471 C 863.4833152 471 919 478.6111584 919 488 C 919 497.3888416 863.4833152 505 795 505 C 726.5166848 505 671 497.3888416 671 488 Z" opacity="0.2"/></g><g transform="translate(10,-6) scale(1,1)"><path fill="#ffffff" stroke="none" d="M 664 481 C 664 471.6111584 719.5166848 464 788 464 C 856.4833152 464 912 471.6111584 912 481 C 912 490.3888416 856.4833152 498 788 498 C 719.5166848 498 664 490.3888416 664 481 Z"/></g><g transform="translate(10,-6) scale(1,1)"><path fill="none" stroke="#000000" d="M 664 481 C 664 471.6111584 719.5166848 464 788 464 C 856.4833152 464 912 471.6111584 912 481 C 912 490.3888416 856.4833152 498 788 498 C 719.5166848 498 664 490.3888416 664 481 Z" stroke-miterlimit="10"/></g><g transform="translate(10,-6) scale(1,1)"><g><path fill="none" stroke="none"/><text fill="#000000" stroke="none" font-family="Arial" font-size="13px" font-style="normal" font-weight="bold" text-decoration="none" x="711.72021484375" y="488">afficher les détails d'un jeu</text></g></g><g transform="translate(10,-6) scale(1,1)"><path fill="none" stroke="#000000" d="M 74 289 L 721 463" stroke-miterlimit="10"/></g><g transform="translate(10,-6) scale(1,1)"><path fill="#C0C0C0" stroke="none" d="M 847 696 C 847 686.6111584 908.56084 679 984.5 679 C 1060.43916 679 1122 686.6111584 1122 696 C 1122 705.3888416 1060.43916 713 984.5 713 C 908.56084 713 847 705.3888416 847 696 Z" opacity="0.2"/></g><g transform="translate(10,-6) scale(1,1)"><path fill="#ffffff" stroke="none" d="M 840 689 C 840 679.6111584 901.56084 672 977.5 672 C 1053.43916 672 1115 679.6111584 1115 689 C 1115 698.3888416 1053.43916 706 977.5 706 C 901.56084 706 840 698.3888416 840 689 Z"/></g><g transform="translate(10,-6) scale(1,1)"><path fill="none" stroke="#000000" d="M 840 689 C 840 679.6111584 901.56084 672 977.5 672 C 1053.43916 672 1115 679.6111584 1115 689 C 1115 698.3888416 1053.43916 706 977.5 706 C 901.56084 706 840 698.3888416 840 689 Z" stroke-miterlimit="10"/></g><g transform="translate(10,-6) scale(1,1)"><g><path fill="none" stroke="none"/><text fill="#000000" stroke="none" font-family="Arial" font-size="13px" font-style="normal" font-weight="bold" text-decoration="none" x="891.708251953125" y="696">écouter les musiques d'un jeu</text></g></g><g transform="translate(10,-6) scale(1,1)"><path fill="none" stroke="#000000" d="M 74 272 L 415 205" stroke-miterlimit="10"/></g><g transform="translate(10,-6) scale(1,1)"><path fill="none" stroke="#000000" d="M 961 671 L 804 499" stroke-miterlimit="10" stroke-dasharray="3"/></g><g transform="translate(10,-6) scale(1,1)"><path fill="none" stroke="#000000" d="M 813.9604046094656 503.6680124266903 L 804 499 L 807.7422864011392 509.3438528842907" stroke-miterlimit="10"/></g><g transform="translate(10,-6) scale(1,1)"><g><path fill="none" stroke="none"/><text fill="#000000" stroke="none" font-family="Arial" font-size="13px" font-style="normal" font-weight="normal" text-decoration="none" x="911.5" y="606.5">«include»</text></g></g><g transform="translate(10,-6) scale(1,1)"><path fill="#C0C0C0" stroke="none" d="M 559 299.5 C 559 283.7598832 628.9186640570313 271 715.167724609375 271 C 801.4167851617187 271 871.33544921875 283.7598832 871.33544921875 299.5 C 871.33544921875 315.2401168 801.4167851617187 328 715.167724609375 328 C 628.9186640570313 328 559 315.2401168 559 299.5 Z" opacity="0.2"/></g><g transform="translate(10,-6) scale(1,1)"><path fill="#ffffff" stroke="none" d="M 552 292.5 C 552 276.7598832 621.9186640570313 264 708.167724609375 264 C 794.4167851617187 264 864.33544921875 276.7598832 864.33544921875 292.5 C 864.33544921875 308.2401168 794.4167851617187 321 708.167724609375 321 C 621.9186640570313 321 552 308.2401168 552 292.5 Z"/></g><g transform="translate(10,-6) scale(1,1)"><path fill="none" stroke="#000000" d="M 552 292.5 C 552 276.7598832 621.9186640570313 264 708.167724609375 264 C 794.4167851617187 264 864.33544921875 276.7598832 864.33544921875 292.5 C 864.33544921875 308.2401168 794.4167851617187 321 708.167724609375 321 C 621.9186640570313 321 552 308.2401168 552 292.5 Z" stroke-miterlimit="10"/></g><g transform="translate(10,-6) scale(1,1)"><g><path fill="none" stroke="none"/><text fill="#000000" stroke="none" font-family="Arial" font-size="13px" font-style="normal" font-weight="bold" text-decoration="none" x="650.727783203125" y="299.5">consulter les favoris</text></g></g><g transform="translate(10,-6) scale(1,1)"><path fill="none" stroke="#000000" d="M 74 280 L 551 289" stroke-miterlimit="10"/></g><g transform="translate(10,-6) scale(1,1)"><path fill="none" stroke="#000000" d="M 74 299 L 407 479" stroke-miterlimit="10"/></g><g transform="translate(10,-6) scale(1,1)"><path fill="#C0C0C0" stroke="none" d="M 247 691.5 C 247 675.7598832 305.8745488 663 378.5 663 C 451.1254512 663 510 675.7598832 510 691.5 C 510 707.2401168 451.1254512 720 378.5 720 C 305.8745488 720 247 707.2401168 247 691.5 Z" opacity="0.2"/></g><g transform="translate(10,-6) scale(1,1)"><path fill="#ffffff" stroke="none" d="M 240 684.5 C 240 668.7598832 298.8745488 656 371.5 656 C 444.1254512 656 503 668.7598832 503 684.5 C 503 700.2401168 444.1254512 713 371.5 713 C 298.8745488 713 240 700.2401168 240 684.5 Z"/></g><g transform="translate(10,-6) scale(1,1)"><path fill="none" stroke="#000000" d="M 240 684.5 C 240 668.7598832 298.8745488 656 371.5 656 C 444.1254512 656 503 668.7598832 503 684.5 C 503 700.2401168 444.1254512 713 371.5 713 C 298.8745488 713 240 700.2401168 240 684.5 Z" stroke-miterlimit="10"/></g><g transform="translate(10,-6) scale(1,1)"><g><path fill="none" stroke="none"/><text fill="#000000" stroke="none" font-family="Arial" font-size="13px" font-style="normal" font-weight="bold" text-decoration="none" x="321.63916015625" y="691.5">ajouter au favoris</text></g></g><g transform="translate(10,-6) scale(1,1)"><path fill="none" stroke="#000000" d="M 751 499 L 431 655" stroke-miterlimit="10"/></g><g transform="translate(10,-6) scale(1,1)"><path fill="none" stroke="#000000" d="M 433 515 L 382 655" stroke-miterlimit="10"/></g><g transform="translate(10,-6) scale(1,1)"><path fill="none" stroke="#000000" d="M 347 655 L 70 320" stroke-miterlimit="10"/></g><g transform="translate(10,-6) scale(1,1)"><path fill="none" stroke="#000000" d="M 721 322 L 780 463" stroke-miterlimit="10"/></g><g transform="translate(10,-6) scale(1,1)"><path fill="none" stroke="#000000" d="M 669 322 L 464 479" stroke-miterlimit="10"/></g></g></svg>