<svg version="1.1" xmlns="http://www.w3.org/2000/svg" xmlns:xlink="http://www.w3.org/1999/xlink" width="1244" height="1874"><defs/><g><g transform="translate(-30,10) scale(1,1)"><path fill="none" stroke="#000000" d="M 40 0 L 1264 0 L 1264 1040 L 40 1040 L 40 0" stroke-miterlimit="10"/></g><g transform="translate(-30,10) scale(1,1)"><path fill="#ffffff" stroke="none" d="M 40 0 L 40 22 L 105.36572265625 22 L 116.36572265625 11 L 116.36572265625 0 L 40 0"/></g><g transform="translate(-30,10) scale(1,1)"><path fill="none" stroke="#000000" d="M 40 0 L 40 22 L 105.36572265625 22 L 116.36572265625 11 L 116.36572265625 0 L 40 0 L 40 0" stroke-miterlimit="10"/></g><g transform="translate(-30,10) scale(1,1)"><g><path fill="none" stroke="none"/><text fill="#000000" stroke="none" font-family="Arial" font-size="13px" font-style="normal" font-weight="normal" text-decoration="none" x="64.72998046875" y="17.5">TriJeu</text></g></g><g transform="translate(-30,10) scale(1,1)"><g><path fill="none" stroke="none"/><text fill="#000000" stroke="none" font-family="Arial" font-size="13px" font-style="normal" font-weight="bold" text-decoration="none" x="45" y="17.5">sd</text></g></g><g transform="translate(-30,10) scale(1,1)"><rect fill="#C0C0C0" stroke="none" x="111" y="47" width="88.3291015625" height="39" opacity="0.2"/></g><g transform="translate(-30,10) scale(1,1)"><rect fill="#ffffff" stroke="none" x="104" y="40" width="88.3291015625" height="39"/></g><g transform="translate(-30,10) scale(1,1)"><path fill="none" stroke="#000000" d="M 104 40 L 192.3291015625 40 L 192.3291015625 79 L 104 79 L 104 40 Z Z" stroke-miterlimit="10"/></g><g transform="translate(-30,10) scale(1,1)"><g><path fill="none" stroke="none"/><text fill="#000000" stroke="none" font-family="Arial" font-size="13px" font-style="normal" font-weight="bold" text-decoration="none" x="116.010498046875" y="59.5">ComboBox</text></g></g><g transform="translate(-30,10) scale(1,1)"><path fill="none" stroke="#000000" d="M 149.5 80 L 149.5 1854" stroke-miterlimit="10" stroke-dasharray="3"/></g><g transform="translate(-30,10) scale(1,1)"><rect fill="#C0C0C0" stroke="none" x="447" y="47" width="72.4599609375" height="39" opacity="0.2"/></g><g transform="translate(-30,10) scale(1,1)"><rect fill="#ffffff" stroke="none" x="440" y="40" width="72.4599609375" height="39"/></g><g transform="translate(-30,10) scale(1,1)"><path fill="none" stroke="#000000" d="M 440 40 L 512.4599609375 40 L 512.4599609375 79 L 440 79 L 440 40 Z Z" stroke-miterlimit="10"/></g><g transform="translate(-30,10) scale(1,1)"><g><path fill="none" stroke="none"/><text fill="#000000" stroke="none" font-family="Arial" font-size="13px" font-style="normal" font-weight="bold" text-decoration="none" x="450.575927734375" y="59.5">Manager</text></g></g><g transform="translate(-30,10) scale(1,1)"><path fill="none" stroke="#000000" d="M 477.5 80 L 477.5 1854" stroke-miterlimit="10" stroke-dasharray="3"/></g><g transform="translate(-30,10) scale(1,1)"><path fill="none" stroke="#000000" d="M 149 192 L 470 192" stroke-miterlimit="10"/></g><g transform="translate(-30,10) scale(1,1)"><path fill="#000000" stroke="none" d="M 459.83732514237585 196.209517756016 L 470 192 L 459.83732514237585 187.790482243984"/></g><g transform="translate(-30,10) scale(1,1)"><path fill="none" stroke="#000000" d="M 459.83732514237585 196.209517756016 L 470 192 L 459.83732514237585 187.790482243984 L 459.83732514237585 196.209517756016" stroke-miterlimit="10"/></g><g transform="translate(-30,10) scale(1,1)"><g><path fill="none" stroke="none"/><text fill="#000000" stroke="none" font-family="Arial" font-size="13px" font-style="normal" font-weight="normal" text-decoration="none" x="203.783447265625" y="188.5">1 : ComboBoxTri_SelectionChanged</text></g></g><g transform="translate(-30,10) scale(1,1)"><rect fill="#ffffff" stroke="none" x="470" y="192" width="13" height="320"/></g><g transform="translate(-30,10) scale(1,1)"><path fill="none" stroke="#000000" d="M 470 192 L 483 192 L 483 512 L 470 512 L 470 192 Z Z" stroke-miterlimit="10"/></g><g transform="translate(-30,10) scale(1,1)"><path fill="none" stroke="#000000" d="M 483 264 L 513 264 L 513 284 L 490 284" stroke-miterlimit="10"/></g><g transform="translate(-30,10) scale(1,1)"><path fill="#000000" stroke="none" d="M 500.16267485762415 279.790482243984 L 490 284 L 500.16267485762415 288.209517756016"/></g><g transform="translate(-30,10) scale(1,1)"><path fill="none" stroke="#000000" d="M 500.16267485762415 279.790482243984 L 490 284 L 500.16267485762415 288.209517756016 L 500.16267485762415 279.790482243984" stroke-miterlimit="10"/></g><g transform="translate(-30,10) scale(1,1)"><g><path fill="none" stroke="none"/><text fill="#000000" stroke="none" font-family="Arial" font-size="13px" font-style="normal" font-weight="normal" text-decoration="none" x="486.5" y="252.5">2 : TypeTriJeuSelected</text></g></g><g transform="translate(-30,10) scale(1,1)"><rect fill="#ffffff" stroke="none" x="477" y="284" width="13" height="204"/></g><g transform="translate(-30,10) scale(1,1)"><path fill="none" stroke="#000000" d="M 477 284 L 490 284 L 490 488 L 477 488 L 477 284 Z Z" stroke-miterlimit="10"/></g><g transform="translate(-30,10) scale(1,1)"><path fill="none" stroke="#000000" d="M 490 320 L 520 320 L 520 340 L 497 340" stroke-miterlimit="10"/></g><g transform="translate(-30,10) scale(1,1)"><path fill="#000000" stroke="none" d="M 507.16267485762415 335.790482243984 L 497 340 L 507.16267485762415 344.209517756016"/></g><g transform="translate(-30,10) scale(1,1)"><path fill="none" stroke="#000000" d="M 507.16267485762415 335.790482243984 L 497 340 L 507.16267485762415 344.209517756016 L 507.16267485762415 335.790482243984" stroke-miterlimit="10"/></g><g transform="translate(-30,10) scale(1,1)"><g><path fill="none" stroke="none"/><text fill="#000000" stroke="none" font-family="Arial" font-size="13px" font-style="normal" font-weight="normal" text-decoration="none" x="503.5" y="316.5">3 : TousLesJeux</text></g></g><g transform="translate(-30,10) scale(1,1)"><rect fill="#ffffff" stroke="none" x="484" y="340" width="13" height="124"/></g><g transform="translate(-30,10) scale(1,1)"><path fill="none" stroke="#000000" d="M 484 340 L 497 340 L 497 464 L 484 464 L 484 340 Z Z" stroke-miterlimit="10"/></g><g transform="translate(-30,10) scale(1,1)"><path fill="none" stroke="#000000" d="M 470 501 L 149 501" stroke-miterlimit="10" stroke-dasharray="3"/></g><g transform="translate(-30,10) scale(1,1)"><path fill="none" stroke="#000000" d="M 159.16267485762415 496.790482243984 L 149 501 L 159.16267485762415 505.209517756016" stroke-miterlimit="10"/></g><g transform="translate(-30,10) scale(1,1)"><g><path fill="none" stroke="none"/><text fill="#000000" stroke="none" font-family="Arial" font-size="13px" font-style="normal" font-weight="normal" text-decoration="none" x="298.5" y="517.5">4 : </text></g></g><g transform="translate(-30,10) scale(1,1)"><path fill="none" stroke="#000000" d="M 72 120 L 824 120 L 824 992 L 72 992 L 72 120" stroke-miterlimit="10"/></g><g transform="translate(-30,10) scale(1,1)"><path fill="#ffffff" stroke="none" d="M 72 120 L 72 142 L 223.84619140625 142 L 234.84619140625 131 L 234.84619140625 120 L 72 120"/></g><g transform="translate(-30,10) scale(1,1)"><path fill="none" stroke="#000000" d="M 72 120 L 72 142 L 223.84619140625 142 L 234.84619140625 131 L 234.84619140625 120 L 72 120 L 72 120" stroke-miterlimit="10"/></g><g transform="translate(-30,10) scale(1,1)"><g><path fill="none" stroke="none"/><text fill="#000000" stroke="none" font-family="Arial" font-size="13px" font-style="normal" font-weight="normal" text-decoration="none" x="96.72998046875" y="137.5">CombinedFragment1</text></g></g><g transform="translate(-30,10) scale(1,1)"><g><path fill="none" stroke="none"/><text fill="#000000" stroke="none" font-family="Arial" font-size="13px" font-style="normal" font-weight="bold" text-decoration="none" x="77" y="137.5">alt</text></g></g><g transform="translate(-30,10) scale(1,1)"><path fill="none" stroke="#000000" d="M 72 681 L 824 681" stroke-miterlimit="10" stroke-dasharray="10,3"/></g><g transform="translate(-30,10) scale(1,1)"><path fill="none" stroke="#000000" d="M 112 752 L 736 752 L 736 960 L 112 960 L 112 752" stroke-miterlimit="10"/></g><g transform="translate(-30,10) scale(1,1)"><path fill="#ffffff" stroke="none" d="M 112 752 L 112 774 L 232.787109375 774 L 243.787109375 763 L 243.787109375 752 L 112 752"/></g><g transform="translate(-30,10) scale(1,1)"><path fill="none" stroke="#000000" d="M 112 752 L 112 774 L 232.787109375 774 L 243.787109375 763 L 243.787109375 752 L 112 752 L 112 752" stroke-miterlimit="10"/></g><g transform="translate(-30,10) scale(1,1)"><g><path fill="none" stroke="none"/><text fill="#000000" stroke="none" font-family="Arial" font-size="13px" font-style="normal" font-weight="normal" text-decoration="none" x="143.9599609375" y="769.5">RechercheJeu</text></g></g><g transform="translate(-30,10) scale(1,1)"><g><path fill="none" stroke="none"/><text fill="#000000" stroke="none" font-family="Arial" font-size="13px" font-style="normal" font-weight="bold" text-decoration="none" x="117" y="769.5">seq</text></g></g></g></svg>