<svg version="1.1" xmlns="http://www.w3.org/2000/svg" xmlns:xlink="http://www.w3.org/1999/xlink" width="1418.5927734375" height="688"><defs/><g><g transform="translate(-390,-102) scale(1,1)"><rect fill="#C0C0C0" stroke="none" x="687" y="119" width="492.0947265625" height="72" opacity="0.2"/></g><g transform="translate(-390,-102) scale(1,1)"><rect fill="#ffffff" stroke="none" x="680" y="112" width="492.0947265625" height="72"/></g><g transform="translate(-390,-102) scale(1,1)"><path fill="none" stroke="#000000" d="M 680 112 L 1172.0947265625 112 L 1172.0947265625 184 L 680 184 L 680 112 Z Z" stroke-miterlimit="10"/></g><g transform="translate(-390,-102) scale(1,1)"><path fill="none" stroke="#000000" d="M 680 137 L 1172.0947265625 137" stroke-miterlimit="10"/></g><g transform="translate(-390,-102) scale(1,1)"><path fill="none" stroke="#000000" d="M 680 147 L 1172.0947265625 147" stroke-miterlimit="10"/></g><g transform="translate(-390,-102) scale(1,1)"><g><path fill="none" stroke="none"/><text fill="#000000" stroke="none" font-family="Arial" font-size="13px" font-style="normal" font-weight="bold" text-decoration="none" x="888.840576171875" y="131.5">MainWindow</text></g></g><g transform="translate(-390,-102) scale(1,1)"><g><path fill="none" stroke="none"/><text fill="#000000" stroke="none" font-family="Arial" font-size="13px" font-style="normal" font-weight="normal" text-decoration="none" x="685" y="164.5">-ListFranchises_SelectionChanged(sender: object, e: SelectionChangedEventArgs)</text></g></g><g transform="translate(-390,-102) scale(1,1)"><g><path fill="none" stroke="none"/><text fill="#000000" stroke="none" font-family="Arial" font-size="13px" font-style="normal" font-weight="normal" text-decoration="none" x="685" y="179.5">-Button_RetourMainClock(sender: object, e: RoutedEventArgs)</text></g></g><g transform="translate(-390,-102) scale(1,1)"><rect fill="#C0C0C0" stroke="none" x="1247" y="327" width="558.5927734375" height="57" opacity="0.2"/></g><g transform="translate(-390,-102) scale(1,1)"><rect fill="#ffffff" stroke="none" x="1240" y="320" width="558.5927734375" height="57"/></g><g transform="translate(-390,-102) scale(1,1)"><path fill="none" stroke="#000000" d="M 1240 320 L 1798.5927734375 320 L 1798.5927734375 377 L 1240 377 L 1240 320 Z Z" stroke-miterlimit="10"/></g><g transform="translate(-390,-102) scale(1,1)"><path fill="none" stroke="#000000" d="M 1240 345 L 1798.5927734375 345" stroke-miterlimit="10"/></g><g transform="translate(-390,-102) scale(1,1)"><path fill="none" stroke="#000000" d="M 1240 355 L 1798.5927734375 355" stroke-miterlimit="10"/></g><g transform="translate(-390,-102) scale(1,1)"><g><path fill="none" stroke="none"/><text fill="#000000" stroke="none" font-family="Arial" font-size="13px" font-style="normal" font-weight="bold" text-decoration="none" x="1456.080078125" y="339.5">UserControlFranchise</text></g></g><g transform="translate(-390,-102) scale(1,1)"><g><path fill="none" stroke="none"/><text fill="#000000" stroke="none" font-family="Arial" font-size="13px" font-style="normal" font-weight="normal" text-decoration="none" x="1245" y="372.5">-ListBoxJeuxDeLaFranchise_SelectionChanged(object sender, SelectionChangedEventArgs e)</text></g></g><g transform="translate(-390,-102) scale(1,1)"><rect fill="#C0C0C0" stroke="none" x="895" y="503" width="504.40283203125" height="57" opacity="0.2"/></g><g transform="translate(-390,-102) scale(1,1)"><rect fill="#ffffff" stroke="none" x="888" y="496" width="504.40283203125" height="57"/></g><g transform="translate(-390,-102) scale(1,1)"><path fill="none" stroke="#000000" d="M 888 496 L 1392.40283203125 496 L 1392.40283203125 553 L 888 553 L 888 496 Z Z" stroke-miterlimit="10"/></g><g transform="translate(-390,-102) scale(1,1)"><path fill="none" stroke="#000000" d="M 888 521 L 1392.40283203125 521" stroke-miterlimit="10"/></g><g transform="translate(-390,-102) scale(1,1)"><path fill="none" stroke="#000000" d="M 888 531 L 1392.40283203125 531" stroke-miterlimit="10"/></g><g transform="translate(-390,-102) scale(1,1)"><g><path fill="none" stroke="none"/><text fill="#000000" stroke="none" font-family="Arial" font-size="13px" font-style="normal" font-weight="bold" text-decoration="none" x="1069.75830078125" y="515.5">UserControlInformations</text></g></g><g transform="translate(-390,-102) scale(1,1)"><g><path fill="none" stroke="none"/><text fill="#000000" stroke="none" font-family="Arial" font-size="13px" font-style="normal" font-weight="normal" text-decoration="none" x="893" y="548.5">-ListBoxNavigation_SelectionChanged(object sender, SelectionChangedEventArgs e)</text></g></g><g transform="translate(-390,-102) scale(1,1)"><rect fill="#C0C0C0" stroke="none" x="1447" y="503" width="60.30810546875" height="44" opacity="0.2"/></g><g transform="translate(-390,-102) scale(1,1)"><rect fill="#ffffff" stroke="none" x="1440" y="496" width="60.30810546875" height="44"/></g><g transform="translate(-390,-102) scale(1,1)"><path fill="none" stroke="#000000" d="M 1440 496 L 1500.30810546875 496 L 1500.30810546875 540 L 1440 540 L 1440 496 Z Z" stroke-miterlimit="10"/></g><g transform="translate(-390,-102) scale(1,1)"><path fill="none" stroke="#000000" d="M 1440 521 L 1500.30810546875 521" stroke-miterlimit="10"/></g><g transform="translate(-390,-102) scale(1,1)"><path fill="none" stroke="#000000" d="M 1440 531 L 1500.30810546875 531" stroke-miterlimit="10"/></g><g transform="translate(-390,-102) scale(1,1)"><g><path fill="none" stroke="none"/><text fill="#000000" stroke="none" font-family="Arial" font-size="13px" font-style="normal" font-weight="bold" text-decoration="none" x="1445.950439453125" y="515.5">UserJeu</text></g></g><g transform="translate(-390,-102) scale(1,1)"><rect fill="#C0C0C0" stroke="none" x="407" y="303" width="496.07470703125" height="88" opacity="0.2"/></g><g transform="translate(-390,-102) scale(1,1)"><rect fill="#ffffff" stroke="none" x="400" y="296" width="496.07470703125" height="88"/></g><g transform="translate(-390,-102) scale(1,1)"><path fill="none" stroke="#000000" d="M 400 296 L 896.07470703125 296 L 896.07470703125 384 L 400 384 L 400 296 Z Z" stroke-miterlimit="10"/></g><g transform="translate(-390,-102) scale(1,1)"><path fill="none" stroke="#000000" d="M 400 321 L 896.07470703125 321" stroke-miterlimit="10"/></g><g transform="translate(-390,-102) scale(1,1)"><path fill="none" stroke="#000000" d="M 400 331 L 896.07470703125 331" stroke-miterlimit="10"/></g><g transform="translate(-390,-102) scale(1,1)"><g><path fill="none" stroke="none"/><text fill="#000000" stroke="none" font-family="Arial" font-size="13px" font-style="normal" font-weight="bold" text-decoration="none" x="599.271484375" y="315.5">UserControlMain</text></g></g><g transform="translate(-390,-102) scale(1,1)"><g><path fill="none" stroke="none"/><text fill="#000000" stroke="none" font-family="Arial" font-size="13px" font-style="normal" font-weight="normal" text-decoration="none" x="405" y="348.5">-ListBoxListeJeux_SelectionChanged(sender: object, e: SelectionChangedEventArg)</text></g></g><g transform="translate(-390,-102) scale(1,1)"><g><path fill="none" stroke="none"/><text fill="#000000" stroke="none" font-family="Arial" font-size="13px" font-style="normal" font-weight="normal" text-decoration="none" x="405" y="363.5">-ButtonRecherche_Click(sender: object, e: RoutesEneventArgs)</text></g></g><g transform="translate(-390,-102) scale(1,1)"><g><path fill="none" stroke="none"/><text fill="#000000" stroke="none" font-family="Arial" font-size="13px" font-style="normal" font-weight="normal" text-decoration="none" x="405" y="378.5">-ComboBoxTri_SelectionChanged(sender: object, e: SelectionChangedEnventArgs)</text></g></g><g transform="translate(-390,-102) scale(1,1)"><rect fill="#C0C0C0" stroke="none" x="543" y="743" width="136.841796875" height="44" opacity="0.2"/></g><g transform="translate(-390,-102) scale(1,1)"><rect fill="#ffffff" stroke="none" x="536" y="736" width="136.841796875" height="44"/></g><g transform="translate(-390,-102) scale(1,1)"><path fill="none" stroke="#000000" d="M 536 736 L 672.841796875 736 L 672.841796875 780 L 536 780 L 536 736 Z Z" stroke-miterlimit="10"/></g><g transform="translate(-390,-102) scale(1,1)"><path fill="none" stroke="#000000" d="M 536 761 L 672.841796875 761" stroke-miterlimit="10"/></g><g transform="translate(-390,-102) scale(1,1)"><path fill="none" stroke="#000000" d="M 536 771 L 672.841796875 771" stroke-miterlimit="10"/></g><g transform="translate(-390,-102) scale(1,1)"><g><path fill="none" stroke="none"/><text fill="#000000" stroke="none" font-family="Arial" font-size="13px" font-style="normal" font-weight="bold" text-decoration="none" x="545.175048828125" y="755.5">UserControlMusique</text></g></g><g transform="translate(-390,-102) scale(1,1)"><rect fill="#C0C0C0" stroke="none" x="1199" y="743" width="131.07177734375" height="44" opacity="0.2"/></g><g transform="translate(-390,-102) scale(1,1)"><rect fill="#ffffff" stroke="none" x="1192" y="736" width="131.07177734375" height="44"/></g><g transform="translate(-390,-102) scale(1,1)"><path fill="none" stroke="#000000" d="M 1192 736 L 1323.07177734375 736 L 1323.07177734375 780 L 1192 780 L 1192 736 Z Z" stroke-miterlimit="10"/></g><g transform="translate(-390,-102) scale(1,1)"><path fill="none" stroke="#000000" d="M 1192 761 L 1323.07177734375 761" stroke-miterlimit="10"/></g><g transform="translate(-390,-102) scale(1,1)"><path fill="none" stroke="#000000" d="M 1192 771 L 1323.07177734375 771" stroke-miterlimit="10"/></g><g transform="translate(-390,-102) scale(1,1)"><g><path fill="none" stroke="none"/><text fill="#000000" stroke="none" font-family="Arial" font-size="13px" font-style="normal" font-weight="bold" text-decoration="none" x="1200.819580078125" y="755.5">UserControlTheorie</text></g></g><g transform="translate(-390,-102) scale(1,1)"><rect fill="#C0C0C0" stroke="none" x="911" y="743" width="122.41357421875" height="44" opacity="0.2"/></g><g transform="translate(-390,-102) scale(1,1)"><rect fill="#ffffff" stroke="none" x="904" y="736" width="122.41357421875" height="44"/></g><g transform="translate(-390,-102) scale(1,1)"><path fill="none" stroke="#000000" d="M 904 736 L 1026.41357421875 736 L 1026.41357421875 780 L 904 780 L 904 736 Z Z" stroke-miterlimit="10"/></g><g transform="translate(-390,-102) scale(1,1)"><path fill="none" stroke="#000000" d="M 904 761 L 1026.41357421875 761" stroke-miterlimit="10"/></g><g transform="translate(-390,-102) scale(1,1)"><path fill="none" stroke="#000000" d="M 904 771 L 1026.41357421875 771" stroke-miterlimit="10"/></g><g transform="translate(-390,-102) scale(1,1)"><g><path fill="none" stroke="none"/><text fill="#000000" stroke="none" font-family="Arial" font-size="13px" font-style="normal" font-weight="bold" text-decoration="none" x="912.943359375" y="755.5">UserControlVisuel</text></g></g><g transform="translate(-390,-102) scale(1,1)"><path fill="none" stroke="#000000" d="M 1433 319 L 1036 185" stroke-miterlimit="10" stroke-dasharray="3"/></g><g transform="translate(-390,-102) scale(1,1)"><path fill="none" stroke="#000000" d="M 1046.97519071727 184.26163104104387 L 1036 185 L 1044.2827374788928 192.23852608310176" stroke-miterlimit="10"/></g><g transform="translate(-390,-102) scale(1,1)"><path fill="none" stroke="#000000" d="M 713 295 L 872 185" stroke-miterlimit="10" stroke-dasharray="3"/></g><g transform="translate(-390,-102) scale(1,1)"><path fill="none" stroke="#000000" d="M 866.037403472585 194.2437785916398 L 872 185 L 861.2474690360499 187.320146087921" stroke-miterlimit="10"/></g><g transform="translate(-390,-102) scale(1,1)"><path fill="none" stroke="#000000" d="M 657 735 L 1071 554" stroke-miterlimit="10" stroke-dasharray="3"/></g><g transform="translate(-390,-102) scale(1,1)"><path fill="none" stroke="#000000" d="M 1063.3746352530384 561.9280396363662 L 1071 554 L 1060.0020822900124 554.2140234667928" stroke-miterlimit="10"/></g><g transform="translate(-390,-102) scale(1,1)"><path fill="none" stroke="#000000" d="M 982 735 L 1118 554" stroke-miterlimit="10" stroke-dasharray="3"/></g><g transform="translate(-390,-102) scale(1,1)"><path fill="none" stroke="#000000" d="M 1115.2605970635984 564.6534347302659 L 1118 554 L 1108.529833666569 559.5960655479673" stroke-miterlimit="10"/></g><g transform="translate(-390,-102) scale(1,1)"><path fill="none" stroke="#000000" d="M 1246 735 L 1155 554" stroke-miterlimit="10" stroke-dasharray="3"/></g><g transform="translate(-390,-102) scale(1,1)"><path fill="none" stroke="#000000" d="M 1163.325883194687 561.1888572825192 L 1155 554 L 1155.8039987328787 564.9705781997819" stroke-miterlimit="10"/></g><g transform="translate(-390,-102) scale(1,1)"><path fill="none" stroke="#000000" d="M 1477 495 L 1510 378" stroke-miterlimit="10" stroke-dasharray="3"/></g><g transform="translate(-390,-102) scale(1,1)"><path fill="none" stroke="#000000" d="M 1511.292687606423 388.9237795085859 L 1510 378 L 1503.1897896057499 386.63834673916523" stroke-miterlimit="10"/></g><g transform="translate(-390,-102) scale(1,1)"><path fill="none" stroke="#000000" d="M 1062 495 L 768 385" stroke-miterlimit="10" stroke-dasharray="3"/></g><g transform="translate(-390,-102) scale(1,1)"><path fill="none" stroke="#000000" d="M 778.9933880408985 384.61866106646283 L 768 385 L 776.043146577769 392.5038518860998" stroke-miterlimit="10"/></g><g transform="translate(-390,-102) scale(1,1)"><path fill="none" stroke="#000000" d="M 1202 495 L 1454 378" stroke-miterlimit="10" stroke-dasharray="3"/></g><g transform="translate(-390,-102) scale(1,1)"><path fill="none" stroke="#000000" d="M 1446.5550382896033 386.0976876409705 L 1454 378 L 1443.0096872460435 378.461546931765" stroke-miterlimit="10"/></g></g></svg>