<svg version="1.1" xmlns="http://www.w3.org/2000/svg" xmlns:xlink="http://www.w3.org/1999/xlink" width="1721.5927734375" height="752"><defs/><g><g transform="translate(-87,-70) scale(1,1)"><rect fill="#C0C0C0" stroke="none" x="687" y="119" width="492.0947265625" height="72" opacity="0.2"/></g><g transform="translate(-87,-70) scale(1,1)"><rect fill="#ffffff" stroke="none" x="680" y="112" width="492.0947265625" height="72"/></g><g transform="translate(-87,-70) scale(1,1)"><path fill="none" stroke="#000000" d="M 680 112 L 1172.0947265625 112 L 1172.0947265625 184 L 680 184 L 680 112 Z Z" stroke-miterlimit="10"/></g><g transform="translate(-87,-70) scale(1,1)"><path fill="none" stroke="#000000" d="M 680 137 L 1172.0947265625 137" stroke-miterlimit="10"/></g><g transform="translate(-87,-70) scale(1,1)"><path fill="none" stroke="#000000" d="M 680 147 L 1172.0947265625 147" stroke-miterlimit="10"/></g><g transform="translate(-87,-70) scale(1,1)"><g><path fill="none" stroke="none"/><text fill="#000000" stroke="none" font-family="Arial" font-size="13px" font-style="normal" font-weight="bold" text-decoration="none" x="888.840576171875" y="131.5">MainWindow</text></g></g><g transform="translate(-87,-70) scale(1,1)"><g><path fill="none" stroke="none"/><text fill="#000000" stroke="none" font-family="Arial" font-size="13px" font-style="normal" font-weight="normal" text-decoration="none" x="685" y="164.5">-ListFranchises_SelectionChanged()</text></g></g><g transform="translate(-87,-70) scale(1,1)"><g><path fill="none" stroke="none"/><text fill="#000000" stroke="none" font-family="Arial" font-size="13px" font-style="normal" font-weight="normal" text-decoration="none" x="685" y="179.5">-Button_RetourMainClock()</text></g></g><g transform="translate(-87,-70) scale(1,1)"><rect fill="#C0C0C0" stroke="none" x="1247" y="327" width="558.5927734375" height="87" opacity="0.2"/></g><g transform="translate(-87,-70) scale(1,1)"><rect fill="#ffffff" stroke="none" x="1240" y="320" width="558.5927734375" height="87"/></g><g transform="translate(-87,-70) scale(1,1)"><path fill="none" stroke="#000000" d="M 1240 320 L 1798.5927734375 320 L 1798.5927734375 407 L 1240 407 L 1240 320 Z Z" stroke-miterlimit="10"/></g><g transform="translate(-87,-70) scale(1,1)"><path fill="none" stroke="#000000" d="M 1240 345 L 1798.5927734375 345" stroke-miterlimit="10"/></g><g transform="translate(-87,-70) scale(1,1)"><path fill="none" stroke="#000000" d="M 1240 355 L 1798.5927734375 355" stroke-miterlimit="10"/></g><g transform="translate(-87,-70) scale(1,1)"><g><path fill="none" stroke="none"/><text fill="#000000" stroke="none" font-family="Arial" font-size="13px" font-style="normal" font-weight="bold" text-decoration="none" x="1456.080078125" y="339.5">UserControlFranchise</text></g></g><g transform="translate(-87,-70) scale(1,1)"><g><path fill="none" stroke="none"/><text fill="#000000" stroke="none" font-family="Arial" font-size="13px" font-style="normal" font-weight="normal" text-decoration="none" x="1245" y="372.5">-ListBoxJeuxDeLaFranchise_SelectionChanged()</text></g></g><g transform="translate(-87,-70) scale(1,1)"><rect fill="#C0C0C0" stroke="none" x="895" y="503" width="504.40283203125" height="72" opacity="0.2"/></g><g transform="translate(-87,-70) scale(1,1)"><rect fill="#ffffff" stroke="none" x="888" y="496" width="504.40283203125" height="72"/></g><g transform="translate(-87,-70) scale(1,1)"><path fill="none" stroke="#000000" d="M 888 496 L 1392.40283203125 496 L 1392.40283203125 568 L 888 568 L 888 496 Z Z" stroke-miterlimit="10"/></g><g transform="translate(-87,-70) scale(1,1)"><path fill="none" stroke="#000000" d="M 888 521 L 1392.40283203125 521" stroke-miterlimit="10"/></g><g transform="translate(-87,-70) scale(1,1)"><path fill="none" stroke="#000000" d="M 888 531 L 1392.40283203125 531" stroke-miterlimit="10"/></g><g transform="translate(-87,-70) scale(1,1)"><g><path fill="none" stroke="none"/><text fill="#000000" stroke="none" font-family="Arial" font-size="13px" font-style="normal" font-weight="bold" text-decoration="none" x="1083.719970703125" y="515.5">UserControlVueJeu</text></g></g><g transform="translate(-87,-70) scale(1,1)"><g><path fill="none" stroke="none"/><text fill="#000000" stroke="none" font-family="Arial" font-size="13px" font-style="normal" font-weight="normal" text-decoration="none" x="893" y="548.5">-ListBoxNavigation_SelectionChanged()</text></g></g><g transform="translate(-87,-70) scale(1,1)"><rect fill="#C0C0C0" stroke="none" x="1591" y="511" width="162.537109375" height="57" opacity="0.2"/></g><g transform="translate(-87,-70) scale(1,1)"><rect fill="#ffffff" stroke="none" x="1584" y="504" width="162.537109375" height="57"/></g><g transform="translate(-87,-70) scale(1,1)"><path fill="none" stroke="#000000" d="M 1584 504 L 1746.537109375 504 L 1746.537109375 561 L 1584 561 L 1584 504 Z Z" stroke-miterlimit="10"/></g><g transform="translate(-87,-70) scale(1,1)"><path fill="none" stroke="#000000" d="M 1584 529 L 1746.537109375 529" stroke-miterlimit="10"/></g><g transform="translate(-87,-70) scale(1,1)"><path fill="none" stroke="#000000" d="M 1584 539 L 1746.537109375 539" stroke-miterlimit="10"/></g><g transform="translate(-87,-70) scale(1,1)"><g><path fill="none" stroke="none"/><text fill="#000000" stroke="none" font-family="Arial" font-size="13px" font-style="normal" font-weight="bold" text-decoration="none" x="1620.111328125" y="523.5">UserControlJeu</text></g></g><g transform="translate(-87,-70) scale(1,1)"><g><path fill="none" stroke="none"/><text fill="#000000" stroke="none" font-family="Arial" font-size="13px" font-style="normal" font-weight="normal" text-decoration="none" x="1589" y="556.5">+Button_JeuFavori_Click()</text></g></g><g transform="translate(-87,-70) scale(1,1)"><rect fill="#C0C0C0" stroke="none" x="319" y="295" width="496.07470703125" height="88" opacity="0.2"/></g><g transform="translate(-87,-70) scale(1,1)"><rect fill="#ffffff" stroke="none" x="312" y="288" width="496.07470703125" height="88"/></g><g transform="translate(-87,-70) scale(1,1)"><path fill="none" stroke="#000000" d="M 312 288 L 808.07470703125 288 L 808.07470703125 376 L 312 376 L 312 288 Z Z" stroke-miterlimit="10"/></g><g transform="translate(-87,-70) scale(1,1)"><path fill="none" stroke="#000000" d="M 312 313 L 808.07470703125 313" stroke-miterlimit="10"/></g><g transform="translate(-87,-70) scale(1,1)"><path fill="none" stroke="#000000" d="M 312 323 L 808.07470703125 323" stroke-miterlimit="10"/></g><g transform="translate(-87,-70) scale(1,1)"><g><path fill="none" stroke="none"/><text fill="#000000" stroke="none" font-family="Arial" font-size="13px" font-style="normal" font-weight="bold" text-decoration="none" x="511.271484375" y="307.5">UserControlMain</text></g></g><g transform="translate(-87,-70) scale(1,1)"><g><path fill="none" stroke="none"/><text fill="#000000" stroke="none" font-family="Arial" font-size="13px" font-style="normal" font-weight="normal" text-decoration="none" x="317" y="340.5">-ListBoxListeJeux_SelectionChanged()</text></g></g><g transform="translate(-87,-70) scale(1,1)"><g><path fill="none" stroke="none"/><text fill="#000000" stroke="none" font-family="Arial" font-size="13px" font-style="normal" font-weight="normal" text-decoration="none" x="317" y="355.5">-ButtonRecherche_Click()</text></g></g><g transform="translate(-87,-70) scale(1,1)"><g><path fill="none" stroke="none"/><text fill="#000000" stroke="none" font-family="Arial" font-size="13px" font-style="normal" font-weight="normal" text-decoration="none" x="317" y="370.5">-ComboBoxTri_SelectionChanged()</text></g></g><g transform="translate(-87,-70) scale(1,1)"><rect fill="#C0C0C0" stroke="none" x="575" y="775" width="136.841796875" height="44" opacity="0.2"/></g><g transform="translate(-87,-70) scale(1,1)"><rect fill="#ffffff" stroke="none" x="568" y="768" width="136.841796875" height="44"/></g><g transform="translate(-87,-70) scale(1,1)"><path fill="none" stroke="#000000" d="M 568 768 L 704.841796875 768 L 704.841796875 812 L 568 812 L 568 768 Z Z" stroke-miterlimit="10"/></g><g transform="translate(-87,-70) scale(1,1)"><path fill="none" stroke="#000000" d="M 568 793 L 704.841796875 793" stroke-miterlimit="10"/></g><g transform="translate(-87,-70) scale(1,1)"><path fill="none" stroke="#000000" d="M 568 803 L 704.841796875 803" stroke-miterlimit="10"/></g><g transform="translate(-87,-70) scale(1,1)"><g><path fill="none" stroke="none"/><text fill="#000000" stroke="none" font-family="Arial" font-size="13px" font-style="normal" font-weight="bold" text-decoration="none" x="577.175048828125" y="787.5">UserControlMusique</text></g></g><g transform="translate(-87,-70) scale(1,1)"><rect fill="#C0C0C0" stroke="none" x="1199" y="743" width="131.07177734375" height="44" opacity="0.2"/></g><g transform="translate(-87,-70) scale(1,1)"><rect fill="#ffffff" stroke="none" x="1192" y="736" width="131.07177734375" height="44"/></g><g transform="translate(-87,-70) scale(1,1)"><path fill="none" stroke="#000000" d="M 1192 736 L 1323.07177734375 736 L 1323.07177734375 780 L 1192 780 L 1192 736 Z Z" stroke-miterlimit="10"/></g><g transform="translate(-87,-70) scale(1,1)"><path fill="none" stroke="#000000" d="M 1192 761 L 1323.07177734375 761" stroke-miterlimit="10"/></g><g transform="translate(-87,-70) scale(1,1)"><path fill="none" stroke="#000000" d="M 1192 771 L 1323.07177734375 771" stroke-miterlimit="10"/></g><g transform="translate(-87,-70) scale(1,1)"><g><path fill="none" stroke="none"/><text fill="#000000" stroke="none" font-family="Arial" font-size="13px" font-style="normal" font-weight="bold" text-decoration="none" x="1200.819580078125" y="755.5">UserControlTheorie</text></g></g><g transform="translate(-87,-70) scale(1,1)"><rect fill="#C0C0C0" stroke="none" x="911" y="743" width="122.41357421875" height="44" opacity="0.2"/></g><g transform="translate(-87,-70) scale(1,1)"><rect fill="#ffffff" stroke="none" x="904" y="736" width="122.41357421875" height="44"/></g><g transform="translate(-87,-70) scale(1,1)"><path fill="none" stroke="#000000" d="M 904 736 L 1026.41357421875 736 L 1026.41357421875 780 L 904 780 L 904 736 Z Z" stroke-miterlimit="10"/></g><g transform="translate(-87,-70) scale(1,1)"><path fill="none" stroke="#000000" d="M 904 761 L 1026.41357421875 761" stroke-miterlimit="10"/></g><g transform="translate(-87,-70) scale(1,1)"><path fill="none" stroke="#000000" d="M 904 771 L 1026.41357421875 771" stroke-miterlimit="10"/></g><g transform="translate(-87,-70) scale(1,1)"><g><path fill="none" stroke="none"/><text fill="#000000" stroke="none" font-family="Arial" font-size="13px" font-style="normal" font-weight="bold" text-decoration="none" x="912.943359375" y="755.5">UserControlVisuel</text></g></g><g transform="translate(-87,-70) scale(1,1)"><rect fill="#C0C0C0" stroke="none" x="119" y="87" width="217.45703125" height="100" opacity="0.2"/></g><g transform="translate(-87,-70) scale(1,1)"><rect fill="#ffffff" stroke="none" x="112" y="80" width="217.45703125" height="100"/></g><g transform="translate(-87,-70) scale(1,1)"><path fill="none" stroke="#000000" d="M 112 80 L 329.45703125 80 L 329.45703125 180 L 112 180 L 112 80 Z Z" stroke-miterlimit="10"/></g><g transform="translate(-87,-70) scale(1,1)"><path fill="none" stroke="#000000" d="M 112 105 L 329.45703125 105" stroke-miterlimit="10"/></g><g transform="translate(-87,-70) scale(1,1)"><path fill="none" stroke="#000000" d="M 112 143 L 329.45703125 143" stroke-miterlimit="10"/></g><g transform="translate(-87,-70) scale(1,1)"><g><path fill="none" stroke="none"/><text fill="#000000" stroke="none" font-family="Arial" font-size="13px" font-style="normal" font-weight="bold" text-decoration="none" x="192.909912109375" y="99.5">Navigator</text></g></g><g transform="translate(-87,-70) scale(1,1)"><g><path fill="none" stroke="none"/><text fill="#000000" stroke="none" font-family="Arial" font-size="13px" font-style="normal" font-weight="normal" text-decoration="none" x="117" y="122.5">~ucNavigation</text></g></g><g transform="translate(-87,-70) scale(1,1)"><g><path fill="none" stroke="none"/><text fill="#000000" stroke="none" font-family="Arial" font-size="13px" font-style="normal" font-weight="normal" text-decoration="none" x="117" y="137.5">~ucNavigationTabJeu</text></g></g><g transform="translate(-87,-70) scale(1,1)"><g><path fill="none" stroke="none"/><text fill="#000000" stroke="none" font-family="Arial" font-size="13px" font-style="normal" font-weight="normal" text-decoration="none" x="117" y="160.5">+NavigateTo(nomUC: String)</text></g></g><g transform="translate(-87,-70) scale(1,1)"><g><path fill="none" stroke="none"/><text fill="#000000" stroke="none" font-family="Arial" font-size="13px" font-style="normal" font-weight="normal" text-decoration="none" x="117" y="175.5">+NavigateToTabJeu(nomUC: String)</text></g></g><g transform="translate(-87,-70) scale(1,1)"><rect fill="#C0C0C0" stroke="none" x="1479" y="743" width="185.24267578125" height="44" opacity="0.2"/></g><g transform="translate(-87,-70) scale(1,1)"><rect fill="#ffffff" stroke="none" x="1472" y="736" width="185.24267578125" height="44"/></g><g transform="translate(-87,-70) scale(1,1)"><path fill="none" stroke="#000000" d="M 1472 736 L 1657.24267578125 736 L 1657.24267578125 780 L 1472 780 L 1472 736 Z Z" stroke-miterlimit="10"/></g><g transform="translate(-87,-70) scale(1,1)"><path fill="none" stroke="#000000" d="M 1472 761 L 1657.24267578125 761" stroke-miterlimit="10"/></g><g transform="translate(-87,-70) scale(1,1)"><path fill="none" stroke="#000000" d="M 1472 771 L 1657.24267578125 771" stroke-miterlimit="10"/></g><g transform="translate(-87,-70) scale(1,1)"><g><path fill="none" stroke="none"/><text fill="#000000" stroke="none" font-family="Arial" font-size="13px" font-style="normal" font-weight="bold" text-decoration="none" x="1483.6982421875" y="755.5">UserControlInformationsJeu</text></g></g><g transform="translate(-87,-70) scale(1,1)"><path fill="none" stroke="#000000" d="M 1068 569 L 681 767" stroke-miterlimit="10" stroke-dasharray="3"/></g><g transform="translate(-87,-70) scale(1,1)"><path fill="none" stroke="#000000" d="M 688.1299691372406 758.6236320459284 L 681 767 L 691.9646361086313 766.1186629445558" stroke-miterlimit="10"/></g><g transform="translate(-87,-70) scale(1,1)"><path fill="none" stroke="#000000" d="M 1111 569 L 983 735" stroke-miterlimit="10" stroke-dasharray="3"/></g><g transform="translate(-87,-70) scale(1,1)"><path fill="none" stroke="#000000" d="M 985.8720835979623 724.3815662263064 L 983 735 L 992.5392363152127 729.5225032612948" stroke-miterlimit="10"/></g><g transform="translate(-87,-70) scale(1,1)"><path fill="none" stroke="#000000" d="M 1159 569 L 1245 735" stroke-miterlimit="10" stroke-dasharray="3"/></g><g transform="translate(-87,-70) scale(1,1)"><path fill="none" stroke="#000000" d="M 1236.5874202046493 727.9127931322093 L 1245 735 L 1244.0628198153213 724.039995743548" stroke-miterlimit="10"/></g><g transform="translate(-87,-70) scale(1,1)"><path fill="none" stroke="#000000" d="M 1209 569 L 1521 735" stroke-miterlimit="10" stroke-dasharray="3"/></g><g transform="translate(-87,-70) scale(1,1)"><path fill="none" stroke="#000000" d="M 1510.0509231443357 733.9427791107078 L 1521 735 L 1514.0054015676576 726.5102654475965" stroke-miterlimit="10"/></g><g transform="translate(-87,-70) scale(1,1)"><path fill="none" stroke="#000000" d="M 947 185 L 1119 495" stroke-miterlimit="10" stroke-dasharray="3"/></g><g transform="translate(-87,-70) scale(1,1)"><path fill="none" stroke="#000000" d="M 1110.388537156738 488.1558267337012 L 1119 495 L 1117.750337555809 484.07121489937794" stroke-miterlimit="10"/></g><g transform="translate(-87,-70) scale(1,1)"><path fill="none" stroke="#000000" d="M 852 185 L 650 287" stroke-miterlimit="10" stroke-dasharray="3"/></g><g transform="translate(-87,-70) scale(1,1)"><path fill="none" stroke="#000000" d="M 657.1743172895771 278.6615845972706 L 650 287 L 660.9691584814642 286.17685833022347" stroke-miterlimit="10"/></g><g transform="translate(-87,-70) scale(1,1)"><path fill="none" stroke="#000000" d="M 1028 185 L 1398 319" stroke-miterlimit="10" stroke-dasharray="3"/></g><g transform="translate(-87,-70) scale(1,1)"><path fill="none" stroke="#000000" d="M 1387.0112500840426 319.49736835901007 L 1398 319 L 1389.8780878782597 311.581472957067" stroke-miterlimit="10"/></g><g transform="translate(-87,-70) scale(1,1)"><path fill="none" stroke="#000000" d="M 1558 408 L 1640 503" stroke-miterlimit="10" stroke-dasharray="3"/></g><g transform="translate(-87,-70) scale(1,1)"><path fill="none" stroke="#000000" d="M 1630.172968402246 498.05738429809236 L 1640 503 L 1636.5461963979117 492.55628223867564" stroke-miterlimit="10"/></g><g transform="translate(-87,-70) scale(1,1)"><path fill="none" stroke="#000000" d="M 691 377 L 1033 495" stroke-miterlimit="10" stroke-dasharray="3"/></g><g transform="translate(-87,-70) scale(1,1)"><path fill="none" stroke="#000000" d="M 1022.0200982424911 495.66464832464595 L 1033 495 L 1024.766059673042 487.70601434796487" stroke-miterlimit="10"/></g><g transform="translate(-87,-70) scale(1,1)"><path fill="none" stroke="#000000" d="M 1418 408 L 1223 495" stroke-miterlimit="10" stroke-dasharray="3"/></g><g transform="translate(-87,-70) scale(1,1)"><path fill="none" stroke="#000000" d="M 1230.5657394620857 487.0150399880878 L 1223 495 L 1233.9960050502582 494.703566306405" stroke-miterlimit="10"/></g><g transform="translate(-87,-70) scale(1,1)"><rect fill="#C0C0C0" stroke="none" x="367" y="583" width="198.26171875" height="72" opacity="0.2"/></g><g transform="translate(-87,-70) scale(1,1)"><rect fill="#ffffff" stroke="none" x="360" y="576" width="198.26171875" height="72"/></g><g transform="translate(-87,-70) scale(1,1)"><path fill="none" stroke="#000000" d="M 360 576 L 558.26171875 576 L 558.26171875 648 L 360 648 L 360 576 Z Z" stroke-miterlimit="10"/></g><g transform="translate(-87,-70) scale(1,1)"><path fill="none" stroke="#000000" d="M 360 601 L 558.26171875 601" stroke-miterlimit="10"/></g><g transform="translate(-87,-70) scale(1,1)"><path fill="none" stroke="#000000" d="M 360 611 L 558.26171875 611" stroke-miterlimit="10"/></g><g transform="translate(-87,-70) scale(1,1)"><g><path fill="none" stroke="none"/><text fill="#000000" stroke="none" font-family="Arial" font-size="13px" font-style="normal" font-weight="bold" text-decoration="none" x="371.339599609375" y="595.5">UserControlJeu4ListeBoxMain</text></g></g><g transform="translate(-87,-70) scale(1,1)"><g><path fill="none" stroke="none"/><text fill="#000000" stroke="none" font-family="Arial" font-size="13px" font-style="normal" font-weight="normal" text-decoration="none" x="365" y="628.5">-Button_JeuFavori_Click()</text></g></g><g transform="translate(-87,-70) scale(1,1)"><path fill="none" stroke="#000000" d="M 544 377 L 472 575" stroke-miterlimit="10" stroke-dasharray="3"/></g><g transform="translate(-87,-70) scale(1,1)"><path fill="none" stroke="#000000" d="M 471.5169465318371 564.0106115116947 L 472 575 L 479.42910073816034 566.8877584958122" stroke-miterlimit="10"/></g><g transform="translate(-87,-70) scale(1,1)"><rect fill="#C0C0C0" stroke="none" x="127" y="375" width="50.919921875" height="44" opacity="0.2"/></g><g transform="translate(-87,-70) scale(1,1)"><rect fill="#ffffff" stroke="none" x="120" y="368" width="50.919921875" height="44"/></g><g transform="translate(-87,-70) scale(1,1)"><path fill="none" stroke="#000000" d="M 120 368 L 170.919921875 368 L 170.919921875 412 L 120 412 L 120 368 Z Z" stroke-miterlimit="10"/></g><g transform="translate(-87,-70) scale(1,1)"><path fill="none" stroke="#000000" d="M 120 393 L 170.919921875 393" stroke-miterlimit="10"/></g><g transform="translate(-87,-70) scale(1,1)"><path fill="none" stroke="#000000" d="M 120 403 L 170.919921875 403" stroke-miterlimit="10"/></g><g transform="translate(-87,-70) scale(1,1)"><g><path fill="none" stroke="none"/><text fill="#000000" stroke="none" font-family="Arial" font-size="13px" font-style="normal" font-weight="bold" text-decoration="none" x="133.89453125" y="387.5">App</text></g></g><g transform="translate(-87,-70) scale(1,1)"><rect fill="#C0C0C0" stroke="none" x="455" y="111" width="62.4599609375" height="44" opacity="0.2"/></g><g transform="translate(-87,-70) scale(1,1)"><rect fill="#ffffff" stroke="none" x="448" y="104" width="62.4599609375" height="44"/></g><g transform="translate(-87,-70) scale(1,1)"><path fill="none" stroke="#000000" d="M 448 104 L 510.4599609375 104 L 510.4599609375 148 L 448 148 L 448 104 Z Z" stroke-miterlimit="10"/></g><g transform="translate(-87,-70) scale(1,1)"><path fill="none" stroke="#000000" d="M 448 129 L 510.4599609375 129" stroke-miterlimit="10"/></g><g transform="translate(-87,-70) scale(1,1)"><path fill="none" stroke="#000000" d="M 448 139 L 510.4599609375 139" stroke-miterlimit="10"/></g><g transform="translate(-87,-70) scale(1,1)"><g><path fill="none" stroke="none"/><text fill="#000000" stroke="none" font-family="Arial" font-size="13px" font-style="normal" font-weight="bold" text-decoration="none" x="453.575927734375" y="123.5">Manager</text></g></g><g transform="translate(-87,-70) scale(1,1)"><path fill="none" stroke="#000000" d="M 152 367 L 205 181" stroke-miterlimit="10"/></g><g transform="translate(-87,-70) scale(1,1)"><path fill="none" stroke="#000000" d="M 206.26341174618642 191.92720416024144 L 205 181 L 198.16666685204257 189.62006717427573" stroke-miterlimit="10"/></g><g transform="translate(-87,-70) scale(1,1)"><g><path fill="none" stroke="none"/><text fill="#000000" stroke="none" font-family="Arial" font-size="13px" font-style="normal" font-weight="normal" text-decoration="none" x="96.5" y="228.5">+LeNavigateur</text></g></g><g transform="translate(-87,-70) scale(1,1)"><path fill="none" stroke="#000000" d="M 172 369 L 450 149" stroke-miterlimit="10"/></g><g transform="translate(-87,-70) scale(1,1)"><path fill="none" stroke="#000000" d="M 444.6430865512768 158.60746992203923 L 450 149 L 439.41858304225866 152.00559730609814" stroke-miterlimit="10"/></g><g transform="translate(-87,-70) scale(1,1)"><g><path fill="none" stroke="none"/><text fill="#000000" stroke="none" font-family="Arial" font-size="13px" font-style="normal" font-weight="normal" text-decoration="none" x="439.5" y="171.5">+LeManager</text></g></g><g transform="translate(-87,-70) scale(1,1)"><path fill="#ffffff" stroke="none" d="M 160 528 L 261 528 L 271 538 L 271 590 L 160 590 L 160 528"/></g><g transform="translate(-87,-70) scale(1,1)"><path fill="none" stroke="#000000" d="M 160 528 L 261 528 L 271 538 L 271 590 L 160 590 L 160 528 L 160 528" stroke-miterlimit="10"/></g><g transform="translate(-87,-70) scale(1,1)"><path fill="none" stroke="#000000" d="M 261 528 L 261 538 L 271 538 L 261 528" stroke-miterlimit="10"/></g><g transform="translate(-87,-70) scale(1,1)"><g><path fill="none" stroke="none"/><text fill="#000000" stroke="none" font-family="Arial" font-size="13px" font-style="normal" font-weight="normal" text-decoration="none" x="165" y="546">Toutes les</text><text fill="#000000" stroke="none" font-family="Arial" font-size="13px" font-style="normal" font-weight="normal" text-decoration="none" x="165" y="559">classes sont</text><text fill="#000000" stroke="none" font-family="Arial" font-size="13px" font-style="normal" font-weight="normal" text-decoration="none" x="165" y="572">dépendantes de</text><text fill="#000000" stroke="none" font-family="Arial" font-size="13px" font-style="normal" font-weight="normal" text-decoration="none" x="165" y="585">App</text></g></g><g transform="translate(-87,-70) scale(1,1)"><path fill="none" stroke="#000000" d="M 155 413 L 203 527" stroke-miterlimit="10" stroke-dasharray="3"/></g><g transform="translate(-87,-70) scale(1,1)"><path fill="none" stroke="#000000" d="M 330 128 L 447 126" stroke-miterlimit="10" stroke-dasharray="3"/></g><g transform="translate(-87,-70) scale(1,1)"><path fill="none" stroke="#000000" d="M 436.9107566689826 130.3825984310133 L 447 126 L 436.7668625538094 121.96479269338343" stroke-miterlimit="10"/></g></g></svg>