<svg version="1.1" xmlns="http://www.w3.org/2000/svg" xmlns:xlink="http://www.w3.org/1999/xlink" width="1020" height="964"><defs/><g><g transform="translate(10,2) scale(1,1)"><path fill="none" stroke="#000000" d="M 0 8 L 1000 8 L 1000 952 L 0 952 L 0 8" stroke-miterlimit="10"/></g><g transform="translate(10,2) scale(1,1)"><path fill="#ffffff" stroke="none" d="M 0 8 L 0 30 L 113.55712890625 30 L 124.55712890625 19 L 124.55712890625 8 L 0 8"/></g><g transform="translate(10,2) scale(1,1)"><path fill="none" stroke="#000000" d="M 0 8 L 0 30 L 113.55712890625 30 L 124.55712890625 19 L 124.55712890625 8 L 0 8 L 0 8" stroke-miterlimit="10"/></g><g transform="translate(10,2) scale(1,1)"><g><path fill="none" stroke="none"/><text fill="#000000" stroke="none" font-family="Arial" font-size="13px" font-style="normal" font-weight="normal" text-decoration="none" x="24.72998046875" y="25.5">RechercheJeu</text></g></g><g transform="translate(10,2) scale(1,1)"><g><path fill="none" stroke="none"/><text fill="#000000" stroke="none" font-family="Arial" font-size="13px" font-style="normal" font-weight="bold" text-decoration="none" x="5" y="25.5">sd</text></g></g><g transform="translate(10,2) scale(1,1)"><rect fill="#C0C0C0" stroke="none" x="111" y="47" width="127.34814453125" height="39" opacity="0.2"/></g><g transform="translate(10,2) scale(1,1)"><rect fill="#ffffff" stroke="none" x="104" y="40" width="127.34814453125" height="39"/></g><g transform="translate(10,2) scale(1,1)"><path fill="none" stroke="#000000" d="M 104 40 L 231.34814453125 40 L 231.34814453125 79 L 104 79 L 104 40 Z Z" stroke-miterlimit="10"/></g><g transform="translate(10,2) scale(1,1)"><g><path fill="none" stroke="none"/><text fill="#000000" stroke="none" font-family="Arial" font-size="13px" font-style="normal" font-weight="bold" text-decoration="none" x="117.4482421875" y="59.5">ButtonRecherche</text></g></g><g transform="translate(10,2) scale(1,1)"><path fill="none" stroke="#000000" d="M 168.5 80 L 168.5 816" stroke-miterlimit="10" stroke-dasharray="3"/></g><g transform="translate(10,2) scale(1,1)"><rect fill="#C0C0C0" stroke="none" x="463" y="47" width="72.4599609375" height="39" opacity="0.2"/></g><g transform="translate(10,2) scale(1,1)"><rect fill="#ffffff" stroke="none" x="456" y="40" width="72.4599609375" height="39"/></g><g transform="translate(10,2) scale(1,1)"><path fill="none" stroke="#000000" d="M 456 40 L 528.4599609375 40 L 528.4599609375 79 L 456 79 L 456 40 Z Z" stroke-miterlimit="10"/></g><g transform="translate(10,2) scale(1,1)"><g><path fill="none" stroke="none"/><text fill="#000000" stroke="none" font-family="Arial" font-size="13px" font-style="normal" font-weight="bold" text-decoration="none" x="466.575927734375" y="59.5">Manager</text></g></g><g transform="translate(10,2) scale(1,1)"><path fill="none" stroke="#000000" d="M 493.5 80 L 493.5 800" stroke-miterlimit="10" stroke-dasharray="3"/></g><g transform="translate(10,2) scale(1,1)"><path fill="none" stroke="#000000" d="M 168 160 L 486 160" stroke-miterlimit="10"/></g><g transform="translate(10,2) scale(1,1)"><path fill="#000000" stroke="none" d="M 475.83732514237585 164.209517756016 L 486 160 L 475.83732514237585 155.790482243984"/></g><g transform="translate(10,2) scale(1,1)"><path fill="none" stroke="#000000" d="M 475.83732514237585 164.209517756016 L 486 160 L 475.83732514237585 155.790482243984 L 475.83732514237585 164.209517756016" stroke-miterlimit="10"/></g><g transform="translate(10,2) scale(1,1)"><g><path fill="none" stroke="none"/><text fill="#000000" stroke="none" font-family="Arial" font-size="13px" font-style="normal" font-weight="normal" text-decoration="none" x="250.5" y="156.5">1 : ButtonRecherche_Click</text></g></g><g transform="translate(10,2) scale(1,1)"><rect fill="#ffffff" stroke="none" x="486" y="160" width="13" height="352"/></g><g transform="translate(10,2) scale(1,1)"><path fill="none" stroke="#000000" d="M 486 160 L 499 160 L 499 512 L 486 512 L 486 160 Z Z" stroke-miterlimit="10"/></g><g transform="translate(10,2) scale(1,1)"><path fill="none" stroke="#000000" d="M 499 248 L 529 248 L 529 268 L 506 268" stroke-miterlimit="10"/></g><g transform="translate(10,2) scale(1,1)"><path fill="#000000" stroke="none" d="M 516.1626748576241 263.790482243984 L 506 268 L 516.1626748576241 272.209517756016"/></g><g transform="translate(10,2) scale(1,1)"><path fill="none" stroke="#000000" d="M 516.1626748576241 263.790482243984 L 506 268 L 516.1626748576241 272.209517756016 L 516.1626748576241 263.790482243984" stroke-miterlimit="10"/></g><g transform="translate(10,2) scale(1,1)"><g><path fill="none" stroke="none"/><text fill="#000000" stroke="none" font-family="Arial" font-size="13px" font-style="normal" font-weight="normal" text-decoration="none" x="511.5" y="244.5">2 : JeuRecherche</text></g></g><g transform="translate(10,2) scale(1,1)"><rect fill="#ffffff" stroke="none" x="493" y="268" width="13" height="204"/></g><g transform="translate(10,2) scale(1,1)"><path fill="none" stroke="#000000" d="M 493 268 L 506 268 L 506 472 L 493 472 L 493 268 Z Z" stroke-miterlimit="10"/></g><g transform="translate(10,2) scale(1,1)"><path fill="none" stroke="#000000" d="M 506 328 L 536 328 L 536 348 L 513 348" stroke-miterlimit="10"/></g><g transform="translate(10,2) scale(1,1)"><path fill="#000000" stroke="none" d="M 523.1626748576241 343.790482243984 L 513 348 L 523.1626748576241 352.209517756016"/></g><g transform="translate(10,2) scale(1,1)"><path fill="none" stroke="#000000" d="M 523.1626748576241 343.790482243984 L 513 348 L 523.1626748576241 352.209517756016 L 523.1626748576241 343.790482243984" stroke-miterlimit="10"/></g><g transform="translate(10,2) scale(1,1)"><g><path fill="none" stroke="none"/><text fill="#000000" stroke="none" font-family="Arial" font-size="13px" font-style="normal" font-weight="normal" text-decoration="none" x="518.5" y="316.5">3 : JeuxRecherchés</text></g></g><g transform="translate(10,2) scale(1,1)"><rect fill="#ffffff" stroke="none" x="500" y="348" width="13" height="100"/></g><g transform="translate(10,2) scale(1,1)"><path fill="none" stroke="#000000" d="M 500 348 L 513 348 L 513 448 L 500 448 L 500 348 Z Z" stroke-miterlimit="10"/></g><g transform="translate(10,2) scale(1,1)"><path fill="none" stroke="#000000" d="M 486 508 L 168 508" stroke-miterlimit="10" stroke-dasharray="3"/></g><g transform="translate(10,2) scale(1,1)"><path fill="none" stroke="#000000" d="M 178.16267485762415 503.790482243984 L 168 508 L 178.16267485762415 512.209517756016" stroke-miterlimit="10"/></g><g transform="translate(10,2) scale(1,1)"><g><path fill="none" stroke="none"/><text fill="#000000" stroke="none" font-family="Arial" font-size="13px" font-style="normal" font-weight="normal" text-decoration="none" x="316.5" y="524.5">4 : </text></g></g></g></svg>