<svg version="1.1" xmlns="http://www.w3.org/2000/svg" xmlns:xlink="http://www.w3.org/1999/xlink" width="738.4599609375" height="520"><defs/><g><g transform="translate(-262,-62) scale(1,1)"><rect fill="#C0C0C0" stroke="none" x="639" y="79" width="69.6708984375" height="44" opacity="0.2"/></g><g transform="translate(-262,-62) scale(1,1)"><rect fill="#ffffff" stroke="none" x="632" y="72" width="69.6708984375" height="44"/></g><g transform="translate(-262,-62) scale(1,1)"><path fill="none" stroke="#000000" d="M 632 72 L 701.6708984375 72 L 701.6708984375 116 L 632 116 L 632 72 Z Z" stroke-miterlimit="10"/></g><g transform="translate(-262,-62) scale(1,1)"><path fill="none" stroke="#000000" d="M 632 97 L 701.6708984375 97" stroke-miterlimit="10"/></g><g transform="translate(-262,-62) scale(1,1)"><path fill="none" stroke="#000000" d="M 632 107 L 701.6708984375 107" stroke-miterlimit="10"/></g><g transform="translate(-262,-62) scale(1,1)"><g><path fill="none" stroke="none"/><text fill="#000000" stroke="none" font-family="Arial" font-size="13px" font-style="normal" font-weight="bold" text-decoration="none" x="639.013671875" y="91.5">StockApp</text></g></g><g transform="translate(-262,-62) scale(1,1)"><rect fill="#C0C0C0" stroke="none" x="743" y="535" width="110.87353515625" height="44" opacity="0.2"/></g><g transform="translate(-262,-62) scale(1,1)"><rect fill="#ffffff" stroke="none" x="736" y="528" width="110.87353515625" height="44"/></g><g transform="translate(-262,-62) scale(1,1)"><path fill="none" stroke="#000000" d="M 736 528 L 846.87353515625 528 L 846.87353515625 572 L 736 572 L 736 528 Z Z" stroke-miterlimit="10"/></g><g transform="translate(-262,-62) scale(1,1)"><path fill="none" stroke="#000000" d="M 736 553 L 846.87353515625 553" stroke-miterlimit="10"/></g><g transform="translate(-262,-62) scale(1,1)"><path fill="none" stroke="#000000" d="M 736 563 L 846.87353515625 563" stroke-miterlimit="10"/></g><g transform="translate(-262,-62) scale(1,1)"><g><path fill="none" stroke="none"/><text fill="#000000" stroke="none" font-family="Arial" font-size="13px" font-style="normal" font-weight="bold" text-decoration="none" x="743.746826171875" y="547.5">FirstSauvegarde</text></g></g><g transform="translate(-262,-62) scale(1,1)"><rect fill="#C0C0C0" stroke="none" x="279" y="527" width="164.84130859375" height="44" opacity="0.2"/></g><g transform="translate(-262,-62) scale(1,1)"><rect fill="#ffffff" stroke="none" x="272" y="520" width="164.84130859375" height="44"/></g><g transform="translate(-262,-62) scale(1,1)"><path fill="none" stroke="#000000" d="M 272 520 L 436.84130859375 520 L 436.84130859375 564 L 272 564 L 272 520 Z Z" stroke-miterlimit="10"/></g><g transform="translate(-262,-62) scale(1,1)"><path fill="none" stroke="#000000" d="M 272 545 L 436.84130859375 545" stroke-miterlimit="10"/></g><g transform="translate(-262,-62) scale(1,1)"><path fill="none" stroke="#000000" d="M 272 555 L 436.84130859375 555" stroke-miterlimit="10"/></g><g transform="translate(-262,-62) scale(1,1)"><g><path fill="none" stroke="none"/><text fill="#000000" stroke="none" font-family="Arial" font-size="13px" font-style="normal" font-weight="bold" text-decoration="none" x="282.171630859375" y="539.5">PersistanceFichierTextes</text></g></g><g transform="translate(-262,-62) scale(1,1)"><rect fill="#C0C0C0" stroke="none" x="927" y="279" width="50.919921875" height="44" opacity="0.2"/></g><g transform="translate(-262,-62) scale(1,1)"><rect fill="#ffffff" stroke="none" x="920" y="272" width="50.919921875" height="44"/></g><g transform="translate(-262,-62) scale(1,1)"><path fill="none" stroke="#000000" d="M 920 272 L 970.919921875 272 L 970.919921875 316 L 920 316 L 920 272 Z Z" stroke-miterlimit="10"/></g><g transform="translate(-262,-62) scale(1,1)"><path fill="none" stroke="#000000" d="M 920 297 L 970.919921875 297" stroke-miterlimit="10"/></g><g transform="translate(-262,-62) scale(1,1)"><path fill="none" stroke="#000000" d="M 920 307 L 970.919921875 307" stroke-miterlimit="10"/></g><g transform="translate(-262,-62) scale(1,1)"><g><path fill="none" stroke="none"/><text fill="#000000" stroke="none" font-family="Arial" font-size="13px" font-style="normal" font-weight="bold" text-decoration="none" x="933.89453125" y="291.5">Sub</text></g></g><g transform="translate(-262,-62) scale(1,1)"><rect fill="#C0C0C0" stroke="none" x="935" y="79" width="62.4599609375" height="44" opacity="0.2"/></g><g transform="translate(-262,-62) scale(1,1)"><rect fill="#ffffff" stroke="none" x="928" y="72" width="62.4599609375" height="44"/></g><g transform="translate(-262,-62) scale(1,1)"><path fill="none" stroke="#000000" d="M 928 72 L 990.4599609375 72 L 990.4599609375 116 L 928 116 L 928 72 Z Z" stroke-miterlimit="10"/></g><g transform="translate(-262,-62) scale(1,1)"><path fill="none" stroke="#000000" d="M 928 97 L 990.4599609375 97" stroke-miterlimit="10"/></g><g transform="translate(-262,-62) scale(1,1)"><path fill="none" stroke="#000000" d="M 928 107 L 990.4599609375 107" stroke-miterlimit="10"/></g><g transform="translate(-262,-62) scale(1,1)"><g><path fill="none" stroke="none"/><text fill="#000000" stroke="none" font-family="Arial" font-size="13px" font-style="normal" font-weight="bold" text-decoration="none" x="933.575927734375" y="91.5">Manager</text></g></g><g transform="translate(-262,-62) scale(1,1)"><path fill="none" stroke="#000000" d="M 927 94 L 703 94" stroke-miterlimit="10" stroke-dasharray="3"/></g><g transform="translate(-262,-62) scale(1,1)"><path fill="none" stroke="#000000" d="M 713.1626748576241 89.79048224398402 L 703 94 L 713.1626748576241 98.20951775601598" stroke-miterlimit="10"/></g><g transform="translate(-262,-62) scale(1,1)"><path fill="#C0C0C0" stroke="none" d="M 573.198974609375 290.5 C 573.198974609375 284.1487248 578.347699409375 279 584.698974609375 279 C 591.050249809375 279 596.198974609375 284.1487248 596.198974609375 290.5 C 596.198974609375 296.8512752 591.050249809375 302 584.698974609375 302 C 578.347699409375 302 573.198974609375 296.8512752 573.198974609375 290.5 Z" opacity="0.2"/></g><g transform="translate(-262,-62) scale(1,1)"><path fill="#ffffff" stroke="none" d="M 566.198974609375 283.5 C 566.198974609375 277.1487248 571.347699409375 272 577.698974609375 272 C 584.050249809375 272 589.198974609375 277.1487248 589.198974609375 283.5 C 589.198974609375 289.8512752 584.050249809375 295 577.698974609375 295 C 571.347699409375 295 566.198974609375 289.8512752 566.198974609375 283.5 Z"/></g><g transform="translate(-262,-62) scale(1,1)"><path fill="none" stroke="#000000" d="M 566.198974609375 283.5 C 566.198974609375 277.1487248 571.347699409375 272 577.698974609375 272 C 584.050249809375 272 589.198974609375 277.1487248 589.198974609375 283.5 C 589.198974609375 289.8512752 584.050249809375 295 577.698974609375 295 C 571.347699409375 295 566.198974609375 289.8512752 566.198974609375 283.5 Z" stroke-miterlimit="10"/></g><g transform="translate(-262,-62) scale(1,1)"><path fill="none" stroke="#000000" d="M 504 320 L 651.39794921875 320" stroke-miterlimit="10"/></g><g transform="translate(-262,-62) scale(1,1)"><g><path fill="none" stroke="none"/><text fill="#000000" stroke="none" font-family="Arial" font-size="13px" font-style="normal" font-weight="bold" text-decoration="none" x="514.111328125" y="314.5">IPersistanceStockApp</text></g></g><g transform="translate(-262,-62) scale(1,1)"><g><path fill="none" stroke="none"/><text fill="#000000" stroke="none" font-family="Arial" font-size="13px" font-style="normal" font-weight="normal" text-decoration="none" x="509" y="337.5">+ChargeDonnees()</text></g></g><g transform="translate(-262,-62) scale(1,1)"><g><path fill="none" stroke="none"/><text fill="#000000" stroke="none" font-family="Arial" font-size="13px" font-style="normal" font-weight="normal" text-decoration="none" x="509" y="352.5">+SauvegardeDonnees()</text></g></g><g transform="translate(-262,-62) scale(1,1)"><path fill="none" stroke="#000000" d="M 377 519 L 534 359" stroke-miterlimit="10"/></g><g transform="translate(-262,-62) scale(1,1)"><path fill="#FFFFFF" stroke="none" d="M 525.7736863297805 379.40411143370767 L 534 359 L 513.7552322607595 367.61100337848086"/></g><g transform="translate(-262,-62) scale(1,1)"><path fill="none" stroke="#000000" d="M 525.7736863297805 379.40411143370767 L 534 359 L 513.7552322607595 367.61100337848086 L 525.7736863297805 379.40411143370767" stroke-miterlimit="10"/></g><g transform="translate(-262,-62) scale(1,1)"><path fill="none" stroke="#000000" d="M 770 527 L 617 359" stroke-miterlimit="10"/></g><g transform="translate(-262,-62) scale(1,1)"><path fill="#FFFFFF" stroke="none" d="M 636.9102107581828 368.3586060695353 L 617 359 L 624.4611112277423 379.6961788561864"/></g><g transform="translate(-262,-62) scale(1,1)"><path fill="none" stroke="#000000" d="M 636.9102107581828 368.3586060695353 L 617 359 L 624.4611112277423 379.6961788561864 L 636.9102107581828 368.3586060695353" stroke-miterlimit="10"/></g><g transform="translate(-262,-62) scale(1,1)"><path fill="none" stroke="#000000" d="M 919 295 L 652 311" stroke-miterlimit="10"/></g><g transform="translate(-262,-62) scale(1,1)"><path fill="#FFFFFF" stroke="none" d="M 671.7853453050968 301.3802229153643 L 652 311 L 672.7925614434002 318.1881422233025"/></g><g transform="translate(-262,-62) scale(1,1)"><path fill="none" stroke="#000000" d="M 671.7853453050968 301.3802229153643 L 652 311 L 672.7925614434002 318.1881422233025 L 671.7853453050968 301.3802229153643" stroke-miterlimit="10"/></g><g transform="translate(-262,-62) scale(1,1)"><path fill="none" stroke="#000000" d="M 657 117 L 595 271" stroke-miterlimit="10"/></g><g transform="translate(-262,-62) scale(1,1)"><path fill="none" stroke="#000000" d="M 594.8904905186126 260.00054511925765 L 595 271 L 602.7003542386351 263.1447759675784" stroke-miterlimit="10"/></g><g transform="translate(-262,-62) scale(1,1)"><g><path fill="none" stroke="none"/><text fill="#000000" stroke="none" font-family="Arial" font-size="13px" font-style="normal" font-weight="normal" text-decoration="none" x="615.5" y="260.5">+Persistance</text></g></g></g></svg>