<svg version="1.1" xmlns="http://www.w3.org/2000/svg" xmlns:xlink="http://www.w3.org/1999/xlink" width="522.49365234375" height="387"><defs/><g><g transform="translate(-62,-30) scale(1,1)"><rect fill="#C0C0C0" stroke="none" x="79" y="151" width="27.5966796875" height="15" opacity="0.2"/></g><g transform="translate(-62,-30) scale(1,1)"><rect fill="#C0C0C0" stroke="none" x="79" y="165" width="68.99169921875" height="25" opacity="0.2"/></g><g transform="translate(-62,-30) scale(1,1)"><rect fill="#ffffff" stroke="none" x="72" y="159" width="68.99169921875" height="24"/></g><g transform="translate(-62,-30) scale(1,1)"><path fill="none" stroke="#000000" d="M 72 159 L 140.99169921875 159 L 140.99169921875 183 L 72 183 L 72 159 Z Z" stroke-miterlimit="10"/></g><g transform="translate(-62,-30) scale(1,1)"><rect fill="#ffffff" stroke="none" x="72" y="144" width="27.5966796875" height="15"/></g><g transform="translate(-62,-30) scale(1,1)"><path fill="none" stroke="#000000" d="M 72 144 L 99.5966796875 144 L 99.5966796875 159 L 72 159 L 72 144 Z Z" stroke-miterlimit="10"/></g><g transform="translate(-62,-30) scale(1,1)"><rect fill="#ffffff" stroke="none" x="72" y="158" width="68.99169921875" height="25"/></g><g transform="translate(-62,-30) scale(1,1)"><path fill="none" stroke="#000000" d="M 72 158 L 140.99169921875 158 L 140.99169921875 183 L 72 183 L 72 158 Z Z" stroke-miterlimit="10"/></g><g transform="translate(-62,-30) scale(1,1)"><g><path fill="none" stroke="none"/><text fill="#000000" stroke="none" font-family="Arial" font-size="13px" font-style="normal" font-weight="bold" text-decoration="none" x="92.765869140625" y="178.5">Data</text></g></g><g transform="translate(-62,-30) scale(1,1)"><rect fill="#C0C0C0" stroke="none" x="279" y="255" width="57.9130859375" height="15" opacity="0.2"/></g><g transform="translate(-62,-30) scale(1,1)"><rect fill="#C0C0C0" stroke="none" x="279" y="269" width="144.78271484375" height="25" opacity="0.2"/></g><g transform="translate(-62,-30) scale(1,1)"><rect fill="#ffffff" stroke="none" x="272" y="263" width="144.78271484375" height="24"/></g><g transform="translate(-62,-30) scale(1,1)"><path fill="none" stroke="#000000" d="M 272 263 L 416.78271484375 263 L 416.78271484375 287 L 272 287 L 272 263 Z Z" stroke-miterlimit="10"/></g><g transform="translate(-62,-30) scale(1,1)"><rect fill="#ffffff" stroke="none" x="272" y="248" width="57.9130859375" height="15"/></g><g transform="translate(-62,-30) scale(1,1)"><path fill="none" stroke="#000000" d="M 272 248 L 329.9130859375 248 L 329.9130859375 263 L 272 263 L 272 248 Z Z" stroke-miterlimit="10"/></g><g transform="translate(-62,-30) scale(1,1)"><rect fill="#ffffff" stroke="none" x="272" y="262" width="144.78271484375" height="25"/></g><g transform="translate(-62,-30) scale(1,1)"><path fill="none" stroke="#000000" d="M 272 262 L 416.78271484375 262 L 416.78271484375 287 L 272 287 L 272 262 Z Z" stroke-miterlimit="10"/></g><g transform="translate(-62,-30) scale(1,1)"><g><path fill="none" stroke="none"/><text fill="#000000" stroke="none" font-family="Arial" font-size="13px" font-style="normal" font-weight="bold" text-decoration="none" x="282.23828125" y="282.5">ApplicationGraphique</text></g></g><g transform="translate(-62,-30) scale(1,1)"><rect fill="#C0C0C0" stroke="none" x="423" y="151" width="63.3974609375" height="15" opacity="0.2"/></g><g transform="translate(-62,-30) scale(1,1)"><rect fill="#C0C0C0" stroke="none" x="423" y="165" width="158.49365234375" height="34" opacity="0.2"/></g><g transform="translate(-62,-30) scale(1,1)"><rect fill="#ffffff" stroke="none" x="416" y="159" width="158.49365234375" height="33"/></g><g transform="translate(-62,-30) scale(1,1)"><path fill="none" stroke="#000000" d="M 416 159 L 574.49365234375 159 L 574.49365234375 192 L 416 192 L 416 159 Z Z" stroke-miterlimit="10"/></g><g transform="translate(-62,-30) scale(1,1)"><rect fill="#ffffff" stroke="none" x="416" y="144" width="63.3974609375" height="15"/></g><g transform="translate(-62,-30) scale(1,1)"><path fill="none" stroke="#000000" d="M 416 144 L 479.3974609375 144 L 479.3974609375 159 L 416 159 L 416 144 Z Z" stroke-miterlimit="10"/></g><g transform="translate(-62,-30) scale(1,1)"><rect fill="#ffffff" stroke="none" x="416" y="158" width="158.49365234375" height="34"/></g><g transform="translate(-62,-30) scale(1,1)"><path fill="none" stroke="#000000" d="M 416 158 L 574.49365234375 158 L 574.49365234375 192 L 416 192 L 416 158 Z Z" stroke-miterlimit="10"/></g><g transform="translate(-62,-30) scale(1,1)"><g><path fill="none" stroke="none"/><text fill="#000000" stroke="none" font-family="Arial" font-size="13px" font-style="normal" font-weight="bold" text-decoration="none" x="427.669677734375" y="178.5">BibliothèqueApplication</text></g></g><g transform="translate(-62,-30) scale(1,1)"><rect fill="#C0C0C0" stroke="none" x="271" y="47" width="34.41914062500001" height="15" opacity="0.2"/></g><g transform="translate(-62,-30) scale(1,1)"><rect fill="#C0C0C0" stroke="none" x="271" y="61" width="86.0478515625" height="25" opacity="0.2"/></g><g transform="translate(-62,-30) scale(1,1)"><rect fill="#ffffff" stroke="none" x="264" y="55" width="86.0478515625" height="24"/></g><g transform="translate(-62,-30) scale(1,1)"><path fill="none" stroke="#000000" d="M 264 55 L 350.0478515625 55 L 350.0478515625 79 L 264 79 L 264 55 Z Z" stroke-miterlimit="10"/></g><g transform="translate(-62,-30) scale(1,1)"><rect fill="#ffffff" stroke="none" x="264" y="40" width="34.41914062500001" height="15"/></g><g transform="translate(-62,-30) scale(1,1)"><path fill="none" stroke="#000000" d="M 264 40 L 298.419140625 40 L 298.419140625 55 L 264 55 L 264 40 Z Z" stroke-miterlimit="10"/></g><g transform="translate(-62,-30) scale(1,1)"><rect fill="#ffffff" stroke="none" x="264" y="54" width="86.0478515625" height="25"/></g><g transform="translate(-62,-30) scale(1,1)"><path fill="none" stroke="#000000" d="M 264 54 L 350.0478515625 54 L 350.0478515625 79 L 264 79 L 264 54 Z Z" stroke-miterlimit="10"/></g><g transform="translate(-62,-30) scale(1,1)"><g><path fill="none" stroke="none"/><text fill="#000000" stroke="none" font-family="Arial" font-size="13px" font-style="normal" font-weight="bold" text-decoration="none" x="271.2548828125" y="74.5">ConsoleTest</text></g></g><g transform="translate(-62,-30) scale(1,1)"><path fill="none" stroke="#000000" d="M 415 167 L 142 163" stroke-miterlimit="10" stroke-dasharray="3"/></g><g transform="translate(-62,-30) scale(1,1)"><path fill="none" stroke="#000000" d="M 152.2232554602742 158.93982170416447 L 142 163 L 152.09991286757403 167.35795365595052" stroke-miterlimit="10"/></g><g transform="translate(-62,-30) scale(1,1)"><path fill="none" stroke="#000000" d="M 298 247 L 142 179" stroke-miterlimit="10" stroke-dasharray="3"/></g><g transform="translate(-62,-30) scale(1,1)"><path fill="none" stroke="#000000" d="M 152.99814495532632 179.20200876622175 L 142 179 L 149.6340211099293 186.9197046468384" stroke-miterlimit="10"/></g><g transform="translate(-62,-30) scale(1,1)"><path fill="none" stroke="#000000" d="M 266 80 L 142 144" stroke-miterlimit="10" stroke-dasharray="3"/></g><g transform="translate(-62,-30) scale(1,1)"><path fill="none" stroke="#000000" d="M 149.10009729497304 135.59829669638847 L 142 144 L 152.96142832386082 143.07962556485856" stroke-miterlimit="10"/></g><g transform="translate(-62,-30) scale(1,1)"><path fill="none" stroke="#000000" d="M 343 80 L 452 143" stroke-miterlimit="10" stroke-dasharray="3"/></g><g transform="translate(-62,-30) scale(1,1)"><path fill="none" stroke="#000000" d="M 441.0947874593438 141.5590491184238 L 452 143 L 445.3077564019407 134.26994412250215" stroke-miterlimit="10"/></g><g transform="translate(-62,-30) scale(1,1)"><path fill="none" stroke="#000000" d="M 375 247 L 457 193" stroke-miterlimit="10" stroke-dasharray="3"/></g><g transform="translate(-62,-30) scale(1,1)"><path fill="none" stroke="#000000" d="M 450.8276251182918 202.10504191751238 L 457 193 L 446.19723498225784 195.07370874797937" stroke-miterlimit="10"/></g><g transform="translate(-62,-30) scale(1,1)"><rect fill="#C0C0C0" stroke="none" x="127" y="375" width="27.5966796875" height="15" opacity="0.2"/></g><g transform="translate(-62,-30) scale(1,1)"><rect fill="#C0C0C0" stroke="none" x="127" y="389" width="68.99169921875" height="25" opacity="0.2"/></g><g transform="translate(-62,-30) scale(1,1)"><rect fill="#ffffff" stroke="none" x="120" y="383" width="68.99169921875" height="24"/></g><g transform="translate(-62,-30) scale(1,1)"><path fill="none" stroke="#000000" d="M 120 383 L 188.99169921875 383 L 188.99169921875 407 L 120 407 L 120 383 Z Z" stroke-miterlimit="10"/></g><g transform="translate(-62,-30) scale(1,1)"><rect fill="#ffffff" stroke="none" x="120" y="368" width="27.5966796875" height="15"/></g><g transform="translate(-62,-30) scale(1,1)"><path fill="none" stroke="#000000" d="M 120 368 L 147.5966796875 368 L 147.5966796875 383 L 120 383 L 120 368 Z Z" stroke-miterlimit="10"/></g><g transform="translate(-62,-30) scale(1,1)"><rect fill="#ffffff" stroke="none" x="120" y="382" width="68.99169921875" height="25"/></g><g transform="translate(-62,-30) scale(1,1)"><path fill="none" stroke="#000000" d="M 120 382 L 188.99169921875 382 L 188.99169921875 407 L 120 407 L 120 382 Z Z" stroke-miterlimit="10"/></g><g transform="translate(-62,-30) scale(1,1)"><g><path fill="none" stroke="none"/><text fill="#000000" stroke="none" font-family="Arial" font-size="13px" font-style="normal" font-weight="bold" text-decoration="none" x="133.180419921875" y="402.5">Images</text></g></g><g transform="translate(-62,-30) scale(1,1)"><path fill="none" stroke="#000000" d="M 311 288 L 186 367" stroke-miterlimit="10" stroke-dasharray="3"/></g><g transform="translate(-62,-30) scale(1,1)"><path fill="none" stroke="#000000" d="M 192.3418713990544 358.0121934178658 L 186 367 L 196.8397192539046 365.12904128946417" stroke-miterlimit="10"/></g></g></svg>