<svg version="1.1" xmlns="http://www.w3.org/2000/svg" xmlns:xlink="http://www.w3.org/1999/xlink" width="996" height="1004"><defs/><g><g transform="translate(10,-6) scale(1,1)"><path fill="none" stroke="#000000" d="M 0 16 L 976 16 L 976 1000 L 0 1000 L 0 16" stroke-miterlimit="10"/></g><g transform="translate(10,-6) scale(1,1)"><path fill="#ffffff" stroke="none" d="M 0 16 L 0 38 L 144.63525390625 38 L 155.63525390625 27 L 155.63525390625 16 L 0 16"/></g><g transform="translate(10,-6) scale(1,1)"><path fill="none" stroke="#000000" d="M 0 16 L 0 38 L 144.63525390625 38 L 155.63525390625 27 L 155.63525390625 16 L 0 16 L 0 16" stroke-miterlimit="10"/></g><g transform="translate(10,-6) scale(1,1)"><g><path fill="none" stroke="none"/><text fill="#000000" stroke="none" font-family="Arial" font-size="13px" font-style="normal" font-weight="normal" text-decoration="none" x="24.72998046875" y="33.5">SequenceDiagram1</text></g></g><g transform="translate(10,-6) scale(1,1)"><g><path fill="none" stroke="none"/><text fill="#000000" stroke="none" font-family="Arial" font-size="13px" font-style="normal" font-weight="bold" text-decoration="none" x="5" y="33.5">sd</text></g></g><g transform="translate(10,-6) scale(1,1)"><rect fill="#C0C0C0" stroke="none" x="151" y="47" width="123.72998046875" height="39" opacity="0.2"/></g><g transform="translate(10,-6) scale(1,1)"><rect fill="#ffffff" stroke="none" x="144" y="40" width="123.72998046875" height="39"/></g><g transform="translate(10,-6) scale(1,1)"><path fill="none" stroke="#000000" d="M 144 40 L 267.72998046875 40 L 267.72998046875 79 L 144 79 L 144 40 Z Z" stroke-miterlimit="10"/></g><g transform="translate(10,-6) scale(1,1)"><g><path fill="none" stroke="none"/><text fill="#000000" stroke="none" font-family="Arial" font-size="13px" font-style="normal" font-weight="bold" text-decoration="none" x="157.09912109375" y="59.5">UserControlMain</text></g></g><g transform="translate(10,-6) scale(1,1)"><path fill="none" stroke="#000000" d="M 206.5 80 L 206.5 928" stroke-miterlimit="10" stroke-dasharray="3"/></g><g transform="translate(10,-6) scale(1,1)"><rect fill="#C0C0C0" stroke="none" x="503" y="47" width="73.18994140625" height="39" opacity="0.2"/></g><g transform="translate(10,-6) scale(1,1)"><rect fill="#ffffff" stroke="none" x="496" y="40" width="73.18994140625" height="39"/></g><g transform="translate(10,-6) scale(1,1)"><path fill="none" stroke="#000000" d="M 496 40 L 569.18994140625 40 L 569.18994140625 79 L 496 79 L 496 40 Z Z" stroke-miterlimit="10"/></g><g transform="translate(10,-6) scale(1,1)"><g><path fill="none" stroke="none"/><text fill="#000000" stroke="none" font-family="Arial" font-size="13px" font-style="normal" font-weight="bold" text-decoration="none" x="506.94091796875" y="59.5">Manager</text></g></g><g transform="translate(10,-6) scale(1,1)"><path fill="none" stroke="#000000" d="M 533.5 80 L 533.5 904" stroke-miterlimit="10" stroke-dasharray="3"/></g><g transform="translate(10,-6) scale(1,1)"><path fill="none" stroke="#000000" d="M 206 328 L 526 328" stroke-miterlimit="10"/></g><g transform="translate(10,-6) scale(1,1)"><path fill="#000000" stroke="none" d="M 515.8373251423759 332.209517756016 L 526 328 L 515.8373251423758 323.790482243984"/></g><g transform="translate(10,-6) scale(1,1)"><path fill="none" stroke="#000000" d="M 515.8373251423759 332.209517756016 L 526 328 L 515.8373251423758 323.790482243984 L 515.8373251423759 332.209517756016" stroke-miterlimit="10"/></g><g transform="translate(10,-6) scale(1,1)"><g><path fill="none" stroke="none"/><text fill="#000000" stroke="none" font-family="Arial" font-size="13px" font-style="normal" font-weight="normal" text-decoration="none" x="326.303955078125" y="324.5">1 : comboBox</text></g></g><g transform="translate(10,-6) scale(1,1)"><rect fill="#ffffff" stroke="none" x="526" y="328" width="13" height="272"/></g><g transform="translate(10,-6) scale(1,1)"><path fill="none" stroke="#000000" d="M 526 328 L 539 328 L 539 600 L 526 600 L 526 328 Z Z" stroke-miterlimit="10"/></g><g transform="translate(10,-6) scale(1,1)"><path fill="none" stroke="#000000" d="M 526 588 L 206 588" stroke-miterlimit="10" stroke-dasharray="3"/></g><g transform="translate(10,-6) scale(1,1)"><path fill="none" stroke="#000000" d="M 216.16267485762415 583.790482243984 L 206 588 L 216.16267485762415 592.209517756016" stroke-miterlimit="10"/></g><g transform="translate(10,-6) scale(1,1)"><g><path fill="none" stroke="none"/><text fill="#000000" stroke="none" font-family="Arial" font-size="13px" font-style="normal" font-weight="normal" text-decoration="none" x="355.5" y="604.5">2 : </text></g></g><g transform="translate(10,-6) scale(1,1)"><path fill="none" stroke="#000000" d="M 136 136 L 640 136 L 640 264 L 136 264 L 136 136" stroke-miterlimit="10"/></g><g transform="translate(10,-6) scale(1,1)"><path fill="#ffffff" stroke="none" d="M 136 136 L 136 158 L 208.595703125 158 L 219.595703125 147 L 219.595703125 136 L 136 136"/></g><g transform="translate(10,-6) scale(1,1)"><path fill="none" stroke="#000000" d="M 136 136 L 136 158 L 208.595703125 158 L 219.595703125 147 L 219.595703125 136 L 136 136 L 136 136" stroke-miterlimit="10"/></g><g transform="translate(10,-6) scale(1,1)"><g><path fill="none" stroke="none"/><text fill="#000000" stroke="none" font-family="Arial" font-size="13px" font-style="normal" font-weight="normal" text-decoration="none" x="167.9599609375" y="153.5">TriJeu</text></g></g><g transform="translate(10,-6) scale(1,1)"><g><path fill="none" stroke="none"/><text fill="#000000" stroke="none" font-family="Arial" font-size="13px" font-style="normal" font-weight="bold" text-decoration="none" x="141" y="153.5">seq</text></g></g><g transform="translate(10,-6) scale(1,1)"><g><path fill="none" stroke="none"/><text fill="#000000" stroke="none" font-family="Arial" font-size="13px" font-style="normal" font-weight="normal" text-decoration="none" x="155.5" y="186.5">[TypeTriJeu = default]</text></g></g><g transform="translate(10,-6) scale(1,1)"><path fill="none" stroke="#000000" d="M 128 640 L 656 640 L 656 752 L 128 752 L 128 640" stroke-miterlimit="10"/></g><g transform="translate(10,-6) scale(1,1)"><path fill="#ffffff" stroke="none" d="M 128 640 L 128 662 L 200.595703125 662 L 211.595703125 651 L 211.595703125 640 L 128 640"/></g><g transform="translate(10,-6) scale(1,1)"><path fill="none" stroke="#000000" d="M 128 640 L 128 662 L 200.595703125 662 L 211.595703125 651 L 211.595703125 640 L 128 640 L 128 640" stroke-miterlimit="10"/></g><g transform="translate(10,-6) scale(1,1)"><g><path fill="none" stroke="none"/><text fill="#000000" stroke="none" font-family="Arial" font-size="13px" font-style="normal" font-weight="normal" text-decoration="none" x="159.9599609375" y="657.5">TriJeu</text></g></g><g transform="translate(10,-6) scale(1,1)"><g><path fill="none" stroke="none"/><text fill="#000000" stroke="none" font-family="Arial" font-size="13px" font-style="normal" font-weight="bold" text-decoration="none" x="133" y="657.5">seq</text></g></g><g transform="translate(10,-6) scale(1,1)"><g><path fill="none" stroke="none"/><text fill="#000000" stroke="none" font-family="Arial" font-size="13px" font-style="normal" font-weight="normal" text-decoration="none" x="147.5" y="690.5">[TypeTriJeu != default]</text></g></g></g></svg>